<svg width="187" height="187" viewBox="0 0 187 187" fill="none" xmlns="http://www.w3.org/2000/svg">
<path d="M120.374 30.9084C120.158 30.7038 119.9 30.5505 119.617 30.4565C107.952 23.6401 94.0631 21.7212 80.988 25.1209C67.9127 28.5197 56.7168 36.9607 49.8499 48.595C42.9824 60.2293 41.004 74.1103 44.3473 87.1998C47.6897 100.29 56.0818 111.523 67.6867 118.439C79.2917 125.357 93.1633 127.396 106.268 124.109C119.372 120.823 130.641 112.48 137.609 100.905C144.576 89.3305 146.675 75.4672 143.445 62.3486C140.215 49.2305 131.92 37.9258 120.376 30.9085L120.374 30.9084ZM119.31 35.7805H119.311C126.146 40.3292 131.674 46.5872 135.344 53.9326L128.997 56.2242C128.092 56.5195 127.327 57.1362 126.844 57.9565C126.362 58.7777 126.195 59.7461 126.377 60.68C126.558 61.615 127.076 62.4508 127.831 63.031C129.111 64.0307 129.143 64.5504 129.143 64.5556C129.146 64.6287 129.041 64.9198 128.529 65.379C123.82 69.6126 125.222 73.65 125.896 75.59L126.019 75.95C126.184 76.4478 126.053 76.5751 125.968 76.6596C125.24 77.1532 124.314 77.2492 123.5 76.9163C122.343 76.4832 121.568 75.3865 121.546 74.1508C121.406 71.5597 120.032 69.1921 117.853 67.7821C114.371 65.6398 109.784 66.7574 107.987 67.3293H107.986C107.32 66.0875 106.341 65.0418 105.146 64.2966C102.819 62.9234 102.344 61.716 103.335 59.6801C105.888 54.4303 105.325 52.5373 103.874 48.9757L103.827 48.8599C103.416 47.8529 102.651 45.9798 103.263 44.8047C103.805 43.7612 105.427 43.1976 106.693 42.9086C111.524 41.8661 115.925 39.3804 119.311 35.7801L119.31 35.7805ZM53.7826 50.1229C56.9111 52.6305 60.5635 54.4014 64.4694 55.306C66.2173 55.5846 67.9861 55.713 69.7548 55.6879C74.7386 55.7568 75.6643 56.1544 75.944 58.3437C76.1057 59.6105 75.488 60.3514 73.8131 61.995C71.7918 63.6459 70.3955 65.9375 69.853 68.4898C69.5858 70.5184 69.5806 72.572 69.8373 74.6017C70.1253 76.1149 70.0564 77.6739 69.6349 79.1547C68.824 80.4351 67.2337 80.9819 65.8062 80.4726C64.4934 80.0865 63.3508 79.2632 62.5692 78.1393C61.6279 76.8412 60.3611 75.8143 58.896 75.1612C57.4298 74.509 55.8185 74.2544 54.2242 74.4234C51.1718 74.6311 50.4957 74.0436 49.6325 73.2954C48.852 72.5461 47.9013 71.9972 46.8609 71.6977C47.3535 64.0454 49.7306 56.6333 53.7826 50.1227L53.7826 50.1229ZM91.5005 114.627C90.1157 116.608 89.2653 118.913 89.0315 121.318C79.0815 120.366 69.7024 116.236 62.2798 109.541C64.4097 108.628 67.8273 106.597 72.2122 102.061C74.3201 99.8801 75.9386 100.287 78.3877 100.908C79.4824 101.224 80.6084 101.423 81.7457 101.502C85.3209 101.675 87.2056 99.661 88.7166 98.0676C89.7058 96.8864 90.9278 95.9221 92.3064 95.2346C93.5545 94.5667 95.0281 94.4613 96.3585 94.9435C97.45 95.3953 98.3151 96.2645 98.7638 97.3571C99.4588 98.793 99.5287 100.452 98.9558 101.94C98.3391 103.917 98.1074 105.992 98.2733 108.056C98.362 109.291 97.7724 109.839 95.5487 111.214H95.5477C93.973 112.054 92.5944 113.218 91.501 114.627L91.5005 114.627ZM93.7086 121.531C93.9027 120.004 94.4662 118.546 95.349 117.284C96.0941 116.425 96.9957 115.716 98.0058 115.193C100.214 113.827 103.238 111.956 102.935 107.722H102.936C102.81 106.193 102.989 104.653 103.46 103.193C104.314 100.733 104.193 98.0384 103.122 95.6643C102.206 93.3717 100.401 91.5487 98.1176 90.6084C95.5964 89.6264 92.7779 89.7621 90.3621 90.9799C88.4358 91.9107 86.7223 93.2266 85.326 94.8473C83.888 96.3614 83.3266 96.8822 81.9271 96.8289V96.8279C81.1163 96.7548 80.3138 96.6025 79.5322 96.3729C76.7096 95.6591 72.8432 94.6824 68.8518 98.8085C63.006 104.856 59.4767 105.604 59.2983 105.638C59.0604 105.673 58.8287 105.745 58.6116 105.851C51.4875 97.8818 47.3195 87.7042 46.8071 77.0265C48.3369 78.3131 50.1694 79.3922 54.5471 79.0895C56.9994 78.9153 57.7413 79.7459 59.077 81.2475C60.4816 83.0988 62.4654 84.4271 64.7121 85.0199C65.4082 85.1879 66.1219 85.2734 66.8388 85.2734C68.3154 85.3298 69.7774 84.951 71.041 84.184C72.3047 83.417 73.3159 82.2963 73.9483 80.9596C74.6965 78.7818 74.8843 76.4494 74.492 74.1798C74.277 72.5331 74.2697 70.8667 74.4701 69.2189C74.7163 67.6609 75.8141 66.583 77.0862 65.3339C78.8529 63.5995 81.0517 61.4416 80.581 57.7505C79.7388 51.1459 74.0058 51.0666 69.8191 51.0094V51.0104C68.3164 51.0324 66.8148 50.9322 65.3298 50.7078C62.077 49.9085 59.0458 48.3933 56.4545 46.2708C63.1424 37.5313 72.7064 31.4383 83.4519 29.0703C94.1991 26.7026 105.438 28.2126 115.181 33.3321C112.524 35.8449 109.228 37.5791 105.654 38.3482C102.413 39.088 100.213 40.5344 99.1153 42.6476C97.5062 45.7448 98.8534 49.0443 99.5004 50.6296L99.5463 50.7402L99.5901 50.8487C100.713 53.6056 100.885 54.0293 99.132 57.6328C97.9257 60.1133 96.7945 64.7997 102.774 68.3268V68.3257C103.352 68.7379 103.806 69.2993 104.087 69.9515C104.519 70.8323 105.263 71.521 106.174 71.8842C107.085 72.2473 108.098 72.2598 109.018 71.9186C111.014 71.1808 113.861 70.8177 115.407 71.7673C115.716 71.9572 116.657 72.5364 116.903 74.684V74.685C117.009 76.1605 117.541 77.5733 118.434 78.7517C119.328 79.9309 120.545 80.8242 121.937 81.325C122.779 81.6225 123.665 81.7758 124.557 81.7758C126.289 81.8134 127.967 81.1769 129.239 80.0019C129.954 79.2985 130.451 78.4032 130.668 77.4223C130.884 76.4424 130.811 75.4208 130.458 74.4816L130.313 74.0558C129.747 72.4237 129.257 71.0149 131.655 68.8591L131.654 68.858C133.022 67.78 133.819 66.1345 133.817 64.3927C133.69 62.7784 132.935 61.2789 131.713 60.2176L137.226 58.2265C140.8 67.6756 141.218 78.0285 138.416 87.7351C135.616 97.442 129.746 105.981 121.687 112.073C113.628 118.165 103.812 121.484 93.7088 121.531L93.7086 121.531Z" fill="#790396"/>
<path d="M167.907 71.1213C167.564 70.6048 167.029 70.2458 166.421 70.1247C165.813 70.0026 165.182 70.1279 164.665 70.4722L158.95 74.2852L153.234 70.4722C152.159 69.7585 150.709 70.0507 149.994 71.1244C149.279 72.1972 149.568 73.6477 150.641 74.3646L157.653 79.0428C158.441 79.5562 159.458 79.5562 160.247 79.0428L167.259 74.3646C168.333 73.6477 168.623 72.1962 167.907 71.1212L167.907 71.1213Z" fill="#790396"/>
<path d="M45.8819 32.1668C46.5257 32.1668 47.1425 31.9018 47.5828 31.4322C48.6201 30.3313 49.7116 29.2544 50.8262 28.2308C51.7779 27.3573 51.8416 25.8776 50.9681 24.9259C50.0947 23.9742 48.615 23.9116 47.6633 24.7851C46.4674 25.8839 45.2966 27.0401 44.1822 28.2235V28.2224C43.5415 28.9018 43.3661 29.8962 43.7355 30.753C44.1049 31.6107 44.9492 32.1659 45.8821 32.167L45.8819 32.1668Z" fill="#790396"/>
<path d="M58.1439 127.077C56.8885 126.227 55.652 125.322 54.4664 124.387V124.386C53.4521 123.587 51.9828 123.761 51.1835 124.775C50.3841 125.79 50.5584 127.26 51.5727 128.059C52.8458 129.064 54.1753 130.036 55.5224 130.951C56.5952 131.658 58.0352 131.381 58.7687 130.326C59.4929 129.256 59.2133 127.803 58.1437 127.077L58.1439 127.077Z" fill="#790396"/>
<path d="M44.7198 114.832C43.9007 113.834 42.4272 113.69 41.4297 114.51C40.4321 115.33 40.2881 116.804 41.1083 117.801C42.1351 119.054 43.2256 120.286 44.3485 121.469H44.3474C45.2449 122.388 46.71 122.425 47.6523 121.554C48.5883 120.664 48.6269 119.183 47.7378 118.246C46.6922 117.145 45.6769 115.996 44.7199 114.831L44.7198 114.832Z" fill="#790396"/>
<path d="M37.248 103.422C36.9673 102.867 36.4768 102.449 35.8872 102.258C35.2966 102.066 34.6538 102.117 34.1017 102.399C33.5487 102.682 33.1302 103.172 32.9403 103.763C32.7493 104.353 32.8004 104.995 33.0832 105.547C33.8221 106.996 34.6224 108.434 35.4614 109.822C37.0173 112.396 41.0233 109.983 39.4614 107.398C38.6808 106.108 37.9357 104.77 37.248 103.422L37.248 103.422Z" fill="#790396"/>
<path d="M56.6397 22.9745C57.1093 22.9745 57.5684 22.8326 57.9556 22.5665C59.2026 21.715 60.4976 20.8968 61.8051 20.1351H61.8061C62.9217 19.486 63.3005 18.0542 62.6514 16.9376C62.0013 15.821 60.5696 15.4422 59.4529 16.0924C58.0494 16.9105 56.6572 17.7891 55.3183 18.7043H55.3194C54.472 19.2835 54.1016 20.3457 54.4042 21.3267C54.7079 22.3066 55.6136 22.9744 56.6394 22.9744L56.6397 22.9745Z" fill="#790396"/>
<path d="M70.2052 133.47C68.7996 132.911 67.3949 132.293 66.0322 131.632C64.8707 131.073 63.4755 131.56 62.913 132.721C62.3516 133.881 62.8358 135.278 63.9952 135.842C65.4592 136.552 66.9671 137.216 68.477 137.816C69.6771 138.276 71.0243 137.695 71.5136 136.508C71.9905 135.308 71.4051 133.948 70.2051 133.47L70.2052 133.47Z" fill="#790396"/>
<path d="M36.1337 43.1168C37.243 43.769 38.6684 43.4121 39.3405 42.3154C40.119 41.0162 40.9559 39.7295 41.8251 38.492C42.5681 37.436 42.3135 35.9771 41.2575 35.2342C40.2014 34.4913 38.7425 34.7459 37.9997 35.803C37.0657 37.1324 36.1693 38.5139 35.3324 39.9081C34.6687 41.0153 35.0266 42.4522 36.1338 43.1171L36.1337 43.1168Z" fill="#790396"/>
<path d="M33.7079 95.0307C33.2217 93.5948 32.7834 92.1266 32.4056 90.6667C32.0821 89.4165 30.8069 88.6662 29.5568 88.9897C28.3067 89.3132 27.5564 90.5884 27.8799 91.8385C28.2858 93.4091 28.7575 94.9879 29.2803 96.5312C29.7196 97.7312 31.024 98.3761 32.245 97.9963C33.467 97.581 34.1223 96.2536 33.7081 95.0305L33.7079 95.0307Z" fill="#790396"/>
<path d="M69.1046 16.3084C69.4031 16.3084 69.6995 16.2511 69.976 16.1384C71.3733 15.5759 72.8155 15.0562 74.2596 14.5939C75.49 14.2005 76.1682 12.8847 75.7748 11.6543C75.3814 10.424 74.0656 9.7457 72.8352 10.1391C71.2835 10.6358 69.7339 11.1941 68.2323 11.7993V11.7983C67.193 12.2167 66.5971 13.3135 66.81 14.4134C67.0229 15.5133 67.985 16.3074 69.1047 16.3084L69.1046 16.3084Z" fill="#790396"/>
<path d="M155.095 60.9327C155.425 62.4062 155.704 63.913 155.926 65.4117C156.015 66.0273 156.344 66.5825 156.843 66.954C157.342 67.3244 157.968 67.482 158.583 67.3912C159.198 67.2994 159.751 66.9676 160.121 66.4667C160.49 65.9668 160.645 65.3407 160.551 64.7261C160.312 63.1159 160.012 61.4963 159.659 59.9132C159.377 58.6526 158.128 57.8596 156.867 58.1413C155.608 58.4231 154.814 59.6722 155.095 60.9327L155.095 60.9327Z" fill="#790396"/>
<path d="M150.695 48.0245C151.335 49.3915 151.933 50.8014 152.474 52.2144C152.935 53.4196 154.286 54.0228 155.493 53.5616C156.698 53.1003 157.302 51.749 156.841 50.5426C156.261 49.0243 155.618 47.51 154.931 46.0407L154.93 46.0417C154.669 45.4772 154.194 45.04 153.61 44.826C153.026 44.6131 152.381 44.6413 151.817 44.9053C151.254 45.1693 150.819 45.6462 150.609 46.2316C150.398 46.8171 150.429 47.462 150.696 48.0244L150.695 48.0245Z" fill="#790396"/>
<path d="M30.6732 56.1964C31.8973 56.5898 33.2111 55.9334 33.6316 54.7198C34.1106 53.2849 34.65 51.8491 35.2334 50.4498C35.7311 49.2581 35.1687 47.889 33.977 47.3913C32.7863 46.8935 31.4172 47.456 30.9195 48.6466C30.2924 50.1493 29.7132 51.6937 29.1977 53.2372C28.7876 54.4623 29.4492 55.7865 30.6732 56.1966L30.6732 56.1964Z" fill="#790396"/>
<path d="M28.6941 84.2836C29.6291 84.1678 30.4097 83.5125 30.6841 82.6109L28.0492 80.8525L26.1104 82.1465C26.1124 82.1695 26.1145 82.1935 26.1166 82.2164C26.2502 83.3226 27.1361 84.1866 28.2443 84.293C28.3946 84.3045 28.5449 84.3014 28.6941 84.2836L28.6941 84.2836Z" fill="#790396"/>
<path d="M30.9859 66.0511C31.1018 65.21 31.2301 64.3721 31.3794 63.5435H31.3783C31.4889 62.933 31.3512 62.3038 30.9974 61.7946C30.6437 61.2853 30.101 60.9378 29.4906 60.8282C28.8801 60.7187 28.2519 60.8564 27.7427 61.2112C27.2334 61.565 26.8859 62.1076 26.7764 62.7181C26.6042 63.6802 26.4581 64.6559 26.3276 65.6337C27.8825 65.234 29.5272 65.3822 30.9861 66.0511L30.9859 66.0511Z" fill="#790396"/>
<path d="M96.7273 11.6875C98.2435 11.7637 99.7703 11.8962 101.265 12.0788C102.545 12.2312 103.707 11.3202 103.864 10.0419C104.02 8.7625 103.114 7.59795 101.835 7.43619C100.229 7.23897 98.59 7.09705 96.9631 7.01461H96.9621C95.6733 6.95096 94.5755 7.94441 94.5108 9.23316C94.4461 10.5229 95.4385 11.6207 96.7273 11.6875Z" fill="#790396"/>
<path d="M147.036 112.518C146.542 112.141 145.92 111.977 145.306 112.061C144.691 112.144 144.135 112.469 143.76 112.962C142.845 114.165 141.872 115.353 140.872 116.492H140.871C140.018 117.461 140.112 118.939 141.081 119.792C142.056 120.628 143.519 120.535 144.38 119.582C145.455 118.362 146.498 117.087 147.48 115.795H147.479C148.262 114.768 148.063 113.3 147.036 112.518L147.036 112.518Z" fill="#790396"/>
<path d="M83.3569 137.098C81.8646 136.857 80.3619 136.557 78.8916 136.208V136.209C77.6352 135.91 76.3746 136.688 76.0762 137.945C75.7787 139.202 76.5551 140.462 77.8115 140.761C79.3925 141.135 81.0079 141.458 82.6108 141.717H82.6118C83.887 141.922 85.087 141.055 85.2936 139.78C85.4992 138.505 84.632 137.303 83.3569 137.098Z" fill="#790396"/>
<path d="M150.158 37.507C149.267 36.1514 148.313 34.8094 147.324 33.5196C146.539 32.4959 145.071 32.3028 144.046 33.0886C143.022 33.8744 142.829 35.3416 143.614 36.3665C144.535 37.5686 145.423 38.8177 146.253 40.0792C146.98 41.1332 148.407 41.4274 149.492 40.746C150.569 40.0354 150.868 38.5859 150.158 37.5069L150.158 37.507Z" fill="#790396"/>
<path d="M137.57 29.5512C138.501 30.4362 139.967 30.4184 140.875 29.5105C141.777 28.586 141.759 27.1052 140.835 26.2036C139.674 25.0703 138.455 23.9631 137.215 22.9135V22.9124C136.226 22.0891 134.759 22.2164 133.928 23.1994C133.099 24.1824 133.219 25.6506 134.197 26.4866C135.354 27.4644 136.488 28.4964 137.57 29.5515L137.57 29.5512Z" fill="#790396"/>
<path d="M157.935 86.5438C156.674 86.2693 155.428 87.0676 155.152 88.3292C154.83 89.8027 154.448 91.2876 154.018 92.7414V92.7403C153.65 93.9779 154.356 95.2792 155.594 95.6466C156.832 96.0139 158.132 95.3074 158.5 94.0698C158.962 92.5076 159.372 90.9122 159.718 89.3291C159.995 88.0675 159.197 86.8205 157.935 86.5439L157.935 86.5438Z" fill="#790396"/>
<path d="M153.904 100.125C152.733 99.5826 151.343 100.093 150.8 101.264C150.163 102.641 149.468 104.009 148.735 105.328H148.736C148.431 105.871 148.355 106.513 148.525 107.111C148.694 107.71 149.095 108.216 149.64 108.517C150.184 108.82 150.825 108.892 151.422 108.72C152.02 108.548 152.524 108.145 152.824 107.599C153.611 106.181 154.357 104.711 155.041 103.231H155.042C155.585 102.059 155.076 100.669 153.904 100.125L153.904 100.125Z" fill="#790396"/>
<path d="M134.378 122.875C133.226 123.856 132.024 124.807 130.805 125.702C129.765 126.467 129.541 127.93 130.304 128.971C131.077 129.998 132.527 130.221 133.572 129.473C134.879 128.513 136.17 127.492 137.407 126.439C138.388 125.601 138.506 124.128 137.671 123.146C136.836 122.163 135.362 122.042 134.378 122.875L134.378 122.875Z" fill="#790396"/>
<path d="M96.9807 137.813C95.4686 137.896 93.9294 137.923 92.4206 137.899H92.4216C91.136 137.894 90.081 138.916 90.0476 140.202C90.0288 141.493 91.0588 142.556 92.3496 142.577C92.7316 142.582 93.1156 142.586 93.4996 142.587C94.7404 142.587 95.9978 142.552 97.2353 142.485C98.5251 142.413 99.5123 141.311 99.4424 140.023C99.3714 138.733 98.2705 137.745 96.9807 137.813V137.813Z" fill="#790396"/>
<path d="M122.883 18.8533C124.22 19.5577 125.549 20.3216 126.835 21.124V21.123C127.933 21.7888 129.363 21.4569 130.055 20.3758C130.738 19.2801 130.404 17.8379 129.308 17.1535C127.928 16.2926 126.499 15.4714 125.063 14.7138C123.919 14.1127 122.505 14.551 121.903 15.6936C121.301 16.8363 121.74 18.2513 122.883 18.8534L122.883 18.8533Z" fill="#790396"/>
<path d="M110.44 135.61C108.988 136.013 107.499 136.37 106.013 136.669C104.747 136.923 103.928 138.156 104.182 139.422C104.452 140.677 105.672 141.49 106.935 141.255C108.532 140.934 110.133 140.551 111.693 140.117C112.938 139.77 113.666 138.48 113.32 137.237C112.974 135.992 111.685 135.263 110.44 135.61L110.44 135.61Z" fill="#790396"/>
<path d="M82.7207 12.4898C82.849 12.4898 82.9774 12.4794 83.1047 12.4575C84.5928 12.2112 86.1122 12.015 87.621 11.8762C88.9077 11.7583 89.8542 10.6188 89.7363 9.33317C89.6173 8.0465 88.4788 7.10001 87.1921 7.21793C85.5715 7.36716 83.9394 7.57796 82.3419 7.84299C81.1418 8.0423 80.2945 9.12862 80.3936 10.3402C80.4928 11.5528 81.5039 12.4878 82.7207 12.4898V12.4898Z" fill="#790396"/>
<path d="M110.196 13.8396C111.652 14.2372 113.113 14.6953 114.541 15.2014V15.2003C115.758 15.6303 117.095 14.9916 117.525 13.7739C117.955 12.5561 117.316 11.2203 116.099 10.7893C114.565 10.2467 112.993 9.75415 111.429 9.3263C110.183 8.98612 108.897 9.72076 108.557 10.9667C108.216 12.2127 108.951 13.4983 110.197 13.8396L110.196 13.8396Z" fill="#790396"/>
<path d="M123.1 130.547C121.762 131.26 120.385 131.93 119.008 132.54L119.009 132.539C117.828 133.061 117.295 134.442 117.816 135.623C118.349 136.793 119.719 137.324 120.9 136.817C122.38 136.163 123.858 135.442 125.296 134.677C126.43 134.066 126.856 132.655 126.252 131.519C125.648 130.384 124.239 129.949 123.1 130.547L123.1 130.547Z" fill="#790396"/>
<path d="M33.7669 79.0421C34.8407 79.7559 36.2912 79.4637 37.006 78.391C37.7209 77.3172 37.4318 75.8667 36.3601 75.1497L29.3476 70.4715C28.5618 69.9477 27.5392 69.9477 26.7544 70.4715L19.7419 75.1497C18.6692 75.8666 18.3801 77.3171 19.0949 78.391C19.8098 79.4637 21.2603 79.7559 22.3351 79.0421L28.0506 75.2292L33.7669 79.0421Z" fill="#790396"/>
</svg>
