<svg width="96" height="96" viewBox="0 0 361 112" fill="none" xmlns="http://www.w3.org/2000/svg">
<path d="M18.4741 89.12H56.2981V31.616L34.6981 77.888L13.0981 31.52V92L10.2181 91.904V24.704H13.0981L34.6981 71.072L56.2981 24.8L59.1781 24.704V92L18.4741 91.904V89.12ZM115.051 86.336C111.531 90.752 105.771 92.96 97.7708 92.96C89.7708 92.96 84.0428 90.688 80.5868 86.144C77.1308 81.6 75.4028 74.272 75.4028 64.16C75.4028 54.048 77.1308 46.72 80.5868 42.176C84.0428 37.632 89.7708 35.36 97.7708 35.36C107.051 35.36 113.355 38.4 116.683 44.48L93.1628 64.16H88.6508L112.939 43.904C110.123 40.128 105.067 38.24 97.7708 38.24C94.5708 38.24 91.8828 38.592 89.7068 39.296C87.5308 39.936 85.5148 41.184 83.6588 43.04C81.8668 44.832 80.5228 47.488 79.6268 51.008C78.7308 54.464 78.2828 58.848 78.2828 64.16C78.2828 69.472 78.7308 73.888 79.6268 77.408C80.5228 80.864 81.8668 83.52 83.6588 85.376C85.5148 87.168 87.5308 88.416 89.7068 89.12C91.8828 89.76 94.5708 90.08 97.7708 90.08C105.067 90.08 110.123 88.192 112.939 84.416L115.051 86.336ZM137.693 92H130.397V36.32H137.693C147.165 36.32 154.717 38.816 160.349 43.808C165.981 48.8 168.797 55.584 168.797 64.16C168.797 72.736 165.981 79.52 160.349 84.512C154.717 89.504 147.165 92 137.693 92ZM137.693 89.12C146.333 89.12 153.181 86.912 158.237 82.496C163.357 78.08 165.917 71.968 165.917 64.16C165.917 56.352 163.357 50.24 158.237 45.824C153.181 41.408 146.333 39.2 137.693 39.2H133.277V89.12H137.693ZM211.004 24.8H248.636L228.38 50.528C231.26 50.912 233.948 51.584 236.444 52.544C238.94 53.44 241.276 54.72 243.452 56.384C245.628 57.984 247.356 60.096 248.636 62.72C249.916 65.344 250.556 68.32 250.556 71.648C250.556 78.24 248.572 83.456 244.604 87.296C240.7 91.072 235.388 92.96 228.668 92.96C225.596 92.96 222.716 92.544 220.028 91.712C217.34 90.88 215.164 89.888 213.5 88.736C211.9 87.584 210.492 86.432 209.276 85.28C208.06 84.128 207.196 83.136 206.684 82.304L206.012 81.056L208.7 79.904C208.892 80.16 209.148 80.544 209.468 81.056C209.788 81.504 210.556 82.304 211.772 83.456C212.988 84.608 214.3 85.632 215.708 86.528C217.116 87.424 218.972 88.256 221.276 89.024C223.644 89.728 226.108 90.08 228.668 90.08C234.748 90.08 239.42 88.448 242.684 85.184C246.012 81.856 247.676 77.344 247.676 71.648C247.676 66.336 245.852 62.208 242.204 59.264C238.556 56.32 233.82 54.368 227.996 53.408L223.196 52.64L242.684 27.68H211.004V24.8ZM263.673 86.432H270.009V92H263.673V86.432ZM318.646 93.248C311.798 93.248 305.526 91.584 299.83 88.256C294.134 84.864 289.622 80.32 286.294 74.624C283.03 68.864 281.398 62.624 281.398 55.904C281.398 49.376 283.062 43.264 286.39 37.568C289.782 31.872 294.326 27.36 300.022 24.032C305.782 20.64 311.99 18.944 318.646 18.944C325.366 18.944 331.574 20.64 337.27 24.032C342.966 27.36 347.478 31.872 350.806 37.568C354.198 43.264 355.894 49.472 355.894 56.192C355.894 62.848 354.23 69.024 350.902 74.72C347.574 80.352 343.062 84.864 337.366 88.256C331.67 91.584 325.43 93.248 318.646 93.248ZM318.646 90.464C324.79 90.464 330.454 88.928 335.638 85.856C340.886 82.72 345.046 78.528 348.118 73.28C351.19 68.032 352.726 62.304 352.726 56.096C352.726 49.952 351.19 44.256 348.118 39.008C345.046 33.696 340.886 29.504 335.638 26.432C330.454 23.296 324.79 21.728 318.646 21.728C312.502 21.728 306.806 23.296 301.558 26.432C296.374 29.504 292.246 33.696 289.174 39.008C286.102 44.256 284.566 49.952 284.566 56.096C284.566 62.304 286.102 68.032 289.174 73.28C292.246 78.528 296.374 82.72 301.558 85.856C306.806 88.928 312.502 90.464 318.646 90.464Z" fill="url(#paint0_linear_235:342)"/>
<mask id="path-2-inside-1_235:342" fill="white">
<path d="M315.759 28.1929C301.378 29.9836 291 41.623 291 56.0125C291 67.1723 297.054 76.6694 307.207 81.4339C314.446 84.8554 323.478 84.8554 330.717 81.4339C336.963 78.492 341.479 73.9833 344.426 67.7479C349.359 57.3235 347.052 44.469 338.789 36.219C332.863 30.2714 323.927 27.1696 315.759 28.1929ZM324.728 33.8208C330.621 35.1638 336.515 39.7045 339.429 45.1405C339.942 46.0998 340.711 47.0271 341.095 47.2189C342.28 47.7306 342.568 48.53 342.024 49.5532C341.671 50.1608 341.223 50.4486 340.518 50.5125C339.301 50.6404 338.5 49.905 338.5 48.5939C338.5 47.091 336.611 43.8934 334.337 41.5911C332.479 39.6725 329.5 37.4661 328.827 37.4661C328.699 37.4661 328.571 38.7771 328.571 40.4079V43.3498L326.745 45.2044C325.016 46.9631 324.952 47.091 325.368 47.8585C325.785 48.6579 325.849 48.6579 329.916 48.6579H334.016V53.4544H337.059C339.429 53.4544 340.102 53.3584 340.102 53.0067C340.102 52.5271 341.639 52.0154 341.992 52.3352C342.44 52.7829 342.152 59.7218 341.607 61.7683C339.429 69.9863 332.767 76.5415 324.631 78.556C321.557 79.2914 316.592 79.2275 313.485 78.4281C306.599 76.6694 300.449 71.3613 297.951 64.9659C297.63 64.1665 297.118 63.3351 296.797 63.1113C296.061 62.5997 296.061 61.1927 296.765 60.4253C298.143 58.8904 300.545 60.4572 299.744 62.3758C299.424 63.1753 299.456 63.527 300.032 64.838C300.641 66.213 300.769 66.309 301.282 65.8613C301.57 65.6055 302.787 64.5822 303.972 63.559L306.118 61.7043L306.31 55.2131L311.916 55.0212V51.5358H308.072V47.9864L299.616 48.1782L299.007 50.0968C298.687 51.1521 298.335 53.2945 298.207 54.8933C297.983 57.7392 297.983 57.7712 297.086 57.8671L296.221 57.9631V55.6927C296.221 43.03 307.752 32.3179 320.404 33.1812C321.653 33.2772 323.574 33.565 324.728 33.8208Z"/>
<path d="M314.919 35.5156L313.959 35.7074L313.768 42.2626H317.317V46.0998H322.625L324.608 44.0853L326.622 42.0708L326.43 36.347L324.352 35.8034C322.241 35.2598 316.869 35.0999 314.919 35.5156Z"/>
<path d="M309.163 37.69C306.796 38.9371 302.32 43.094 301.232 45.0446L300.657 46.0998H308.043V42.2626H311.881V39.3847C311.881 37.7859 311.785 36.5069 311.657 36.5069C311.497 36.5069 310.41 37.0505 309.163 37.69Z"/>
<path d="M309.962 49.6172H315.398V44.1812H309.962V49.6172Z"/>
<path d="M317.317 51.5358H313.831L313.639 57.1317L308.363 57.3235V58.9863C308.363 60.6171 308.427 60.745 310.122 62.4078L311.881 64.1345V60.809H321.154V66.245H322.817C324.416 66.245 324.575 66.181 326.334 64.4223L328.189 62.5997V57.9311H324.671V54.3817C324.671 51.0241 324.607 50.7044 323.808 49.4253L322.913 48.0183H317.317V51.5358Z"/>
<path d="M326.59 56.0125H332.026V50.5764H326.59V56.0125Z"/>
<path d="M333.944 57.9311H330.523L330.331 60.5212C330.203 62.6316 330.011 63.2392 329.436 63.8787C329.02 64.3264 328.828 64.774 329.02 64.9019C329.18 65.0618 330.587 66.3089 332.122 67.6839L334.936 70.1781L335.479 69.4426C338.165 65.7973 339.764 61.8002 340.148 57.6752L340.372 55.3729H333.944V57.9311Z"/>
<path d="M313.799 68.1956L319.075 68.0037L319.267 62.7276H313.799V68.1956Z"/>
<path d="M304.75 65.6694C303.247 66.9484 302 68.1316 302 68.2915C301.936 69.0269 307.052 73.5036 309.227 74.6548C315.078 77.7245 322.081 77.9484 327.933 75.2624C329.884 74.367 333.305 72.0647 333.305 71.649C333.305 71.5211 331.994 70.242 330.427 68.8031L327.517 66.149L326.494 67.1403C325.535 68.0676 325.279 68.1636 323.296 68.1636H321.154V70.0821H311.881V68.7072C311.881 67.4601 311.721 67.1723 309.866 65.3496C308.779 64.2624 307.788 63.3671 307.692 63.3671C307.596 63.3671 306.285 64.4223 304.75 65.6694Z"/>
</mask>
<path d="M315.759 28.1929C301.378 29.9836 291 41.623 291 56.0125C291 67.1723 297.054 76.6694 307.207 81.4339C314.446 84.8554 323.478 84.8554 330.717 81.4339C336.963 78.492 341.479 73.9833 344.426 67.7479C349.359 57.3235 347.052 44.469 338.789 36.219C332.863 30.2714 323.927 27.1696 315.759 28.1929ZM324.728 33.8208C330.621 35.1638 336.515 39.7045 339.429 45.1405C339.942 46.0998 340.711 47.0271 341.095 47.2189C342.28 47.7306 342.568 48.53 342.024 49.5532C341.671 50.1608 341.223 50.4486 340.518 50.5125C339.301 50.6404 338.5 49.905 338.5 48.5939C338.5 47.091 336.611 43.8934 334.337 41.5911C332.479 39.6725 329.5 37.4661 328.827 37.4661C328.699 37.4661 328.571 38.7771 328.571 40.4079V43.3498L326.745 45.2044C325.016 46.9631 324.952 47.091 325.368 47.8585C325.785 48.6579 325.849 48.6579 329.916 48.6579H334.016V53.4544H337.059C339.429 53.4544 340.102 53.3584 340.102 53.0067C340.102 52.5271 341.639 52.0154 341.992 52.3352C342.44 52.7829 342.152 59.7218 341.607 61.7683C339.429 69.9863 332.767 76.5415 324.631 78.556C321.557 79.2914 316.592 79.2275 313.485 78.4281C306.599 76.6694 300.449 71.3613 297.951 64.9659C297.63 64.1665 297.118 63.3351 296.797 63.1113C296.061 62.5997 296.061 61.1927 296.765 60.4253C298.143 58.8904 300.545 60.4572 299.744 62.3758C299.424 63.1753 299.456 63.527 300.032 64.838C300.641 66.213 300.769 66.309 301.282 65.8613C301.57 65.6055 302.787 64.5822 303.972 63.559L306.118 61.7043L306.31 55.2131L311.916 55.0212V51.5358H308.072V47.9864L299.616 48.1782L299.007 50.0968C298.687 51.1521 298.335 53.2945 298.207 54.8933C297.983 57.7392 297.983 57.7712 297.086 57.8671L296.221 57.9631V55.6927C296.221 43.03 307.752 32.3179 320.404 33.1812C321.653 33.2772 323.574 33.565 324.728 33.8208Z" stroke="url(#paint1_linear_235:342)" mask="url(#path-2-inside-1_235:342)"/>
<path d="M314.919 35.5156L313.959 35.7074L313.768 42.2626H317.317V46.0998H322.625L324.608 44.0853L326.622 42.0708L326.43 36.347L324.352 35.8034C322.241 35.2598 316.869 35.0999 314.919 35.5156Z" stroke="url(#paint2_linear_235:342)" mask="url(#path-2-inside-1_235:342)"/>
<path d="M309.163 37.69C306.796 38.9371 302.32 43.094 301.232 45.0446L300.657 46.0998H308.043V42.2626H311.881V39.3847C311.881 37.7859 311.785 36.5069 311.657 36.5069C311.497 36.5069 310.41 37.0505 309.163 37.69Z" stroke="url(#paint3_linear_235:342)" mask="url(#path-2-inside-1_235:342)"/>
<path d="M309.962 49.6172H315.398V44.1812H309.962V49.6172Z" stroke="url(#paint4_linear_235:342)" mask="url(#path-2-inside-1_235:342)"/>
<path d="M317.317 51.5358H313.831L313.639 57.1317L308.363 57.3235V58.9863C308.363 60.6171 308.427 60.745 310.122 62.4078L311.881 64.1345V60.809H321.154V66.245H322.817C324.416 66.245 324.575 66.181 326.334 64.4223L328.189 62.5997V57.9311H324.671V54.3817C324.671 51.0241 324.607 50.7044 323.808 49.4253L322.913 48.0183H317.317V51.5358Z" stroke="url(#paint5_linear_235:342)" mask="url(#path-2-inside-1_235:342)"/>
<path d="M326.59 56.0125H332.026V50.5764H326.59V56.0125Z" stroke="url(#paint6_linear_235:342)" mask="url(#path-2-inside-1_235:342)"/>
<path d="M333.944 57.9311H330.523L330.331 60.5212C330.203 62.6316 330.011 63.2392 329.436 63.8787C329.02 64.3264 328.828 64.774 329.02 64.9019C329.18 65.0618 330.587 66.3089 332.122 67.6839L334.936 70.1781L335.479 69.4426C338.165 65.7973 339.764 61.8002 340.148 57.6752L340.372 55.3729H333.944V57.9311Z" stroke="url(#paint7_linear_235:342)" mask="url(#path-2-inside-1_235:342)"/>
<path d="M313.799 68.1956L319.075 68.0037L319.267 62.7276H313.799V68.1956Z" stroke="url(#paint8_linear_235:342)" mask="url(#path-2-inside-1_235:342)"/>
<path d="M304.75 65.6694C303.247 66.9484 302 68.1316 302 68.2915C301.936 69.0269 307.052 73.5036 309.227 74.6548C315.078 77.7245 322.081 77.9484 327.933 75.2624C329.884 74.367 333.305 72.0647 333.305 71.649C333.305 71.5211 331.994 70.242 330.427 68.8031L327.517 66.149L326.494 67.1403C325.535 68.0676 325.279 68.1636 323.296 68.1636H321.154V70.0821H311.881V68.7072C311.881 67.4601 311.721 67.1723 309.866 65.3496C308.779 64.2624 307.788 63.3671 307.692 63.3671C307.596 63.3671 306.285 64.4223 304.75 65.6694Z" stroke="url(#paint9_linear_235:342)" mask="url(#path-2-inside-1_235:342)"/>
<defs>
<linearGradient id="paint0_linear_235:342" x1="180.714" y1="0" x2="180.714" y2="112" gradientUnits="userSpaceOnUse">
<stop offset="0.294792" stop-color="#11ADF1"/>
<stop offset="1" stop-color="#CC14FA"/>
</linearGradient>
<linearGradient id="paint1_linear_235:342" x1="319" y1="28" x2="319" y2="84" gradientUnits="userSpaceOnUse">
<stop offset="0.294792" stop-color="#11ADF1"/>
<stop offset="1" stop-color="#CC14FA"/>
</linearGradient>
<linearGradient id="paint2_linear_235:342" x1="319" y1="28" x2="319" y2="84" gradientUnits="userSpaceOnUse">
<stop offset="0.294792" stop-color="#11ADF1"/>
<stop offset="1" stop-color="#CC14FA"/>
</linearGradient>
<linearGradient id="paint3_linear_235:342" x1="319" y1="28" x2="319" y2="84" gradientUnits="userSpaceOnUse">
<stop offset="0.294792" stop-color="#11ADF1"/>
<stop offset="1" stop-color="#CC14FA"/>
</linearGradient>
<linearGradient id="paint4_linear_235:342" x1="319" y1="28" x2="319" y2="84" gradientUnits="userSpaceOnUse">
<stop offset="0.294792" stop-color="#11ADF1"/>
<stop offset="1" stop-color="#CC14FA"/>
</linearGradient>
<linearGradient id="paint5_linear_235:342" x1="319" y1="28" x2="319" y2="84" gradientUnits="userSpaceOnUse">
<stop offset="0.294792" stop-color="#11ADF1"/>
<stop offset="1" stop-color="#CC14FA"/>
</linearGradient>
<linearGradient id="paint6_linear_235:342" x1="319" y1="28" x2="319" y2="84" gradientUnits="userSpaceOnUse">
<stop offset="0.294792" stop-color="#11ADF1"/>
<stop offset="1" stop-color="#CC14FA"/>
</linearGradient>
<linearGradient id="paint7_linear_235:342" x1="319" y1="28" x2="319" y2="84" gradientUnits="userSpaceOnUse">
<stop offset="0.294792" stop-color="#11ADF1"/>
<stop offset="1" stop-color="#CC14FA"/>
</linearGradient>
<linearGradient id="paint8_linear_235:342" x1="319" y1="28" x2="319" y2="84" gradientUnits="userSpaceOnUse">
<stop offset="0.294792" stop-color="#11ADF1"/>
<stop offset="1" stop-color="#CC14FA"/>
</linearGradient>
<linearGradient id="paint9_linear_235:342" x1="319" y1="28" x2="319" y2="84" gradientUnits="userSpaceOnUse">
<stop offset="0.294792" stop-color="#11ADF1"/>
<stop offset="1" stop-color="#CC14FA"/>
</linearGradient>
</defs>
</svg>
