<svg width="28" height="28" viewBox="0 0 28 28" fill="none" xmlns="http://www.w3.org/2000/svg">
<path d="M20.0122 7.32427C20.0739 7.38288 20.153 7.4152 20.2364 7.4152L20.2364 7.41521C20.3201 7.41521 20.4001 7.38259 20.4624 7.32029L22.2496 5.53309L22.1789 5.46238L22.2496 5.53309C23.0783 4.70432 23.0783 3.35476 22.2496 2.52603C21.848 2.1244 21.3128 1.90394 20.7461 1.90394C20.1794 1.90394 19.6442 2.12438 19.2426 2.52603L17.4554 4.31323L17.4554 4.3132L17.4535 4.31517C17.3981 4.37365 17.3627 4.45241 17.3627 4.53925C17.3627 4.62383 17.3944 4.70424 17.4553 4.76525C17.4554 4.76526 17.4554 4.76527 17.4554 4.76528L20.0104 7.32245L20.0103 7.32247L20.0122 7.32427ZM20.2364 6.64442L18.1312 4.53923L19.69 2.97837C19.6901 2.97832 19.6901 2.97827 19.6902 2.97822C19.9736 2.69696 20.3464 2.54148 20.7439 2.54148C21.1417 2.54148 21.5166 2.69714 21.7976 2.97811L21.8683 2.9074L21.7976 2.97811C22.3776 3.5581 22.3776 4.50322 21.7976 5.08325L20.2364 6.64442Z" fill="#4F4F4F" stroke="#4F4F4F" stroke-width="0.2"/>
<path d="M11.3028 14.3364V14.3368L11.3074 14.3364C11.536 14.3352 11.7521 14.2437 11.9118 14.084L12.0015 13.9943C12.0862 13.9095 12.1973 13.8556 12.3143 13.8389C12.3144 13.8388 12.3145 13.8388 12.3146 13.8388L13.0311 13.7405C13.0312 13.7405 13.0313 13.7405 13.0313 13.7405C13.2851 13.7069 13.5262 13.5875 13.7078 13.4058L13.7078 13.4058L18.8242 8.28705C18.9486 8.16268 18.9486 7.96156 18.8242 7.83719L16.9386 5.95155C16.8142 5.82719 16.6131 5.82719 16.4887 5.95155L11.3699 11.0704L11.3699 11.0704C11.1879 11.2524 11.0711 11.4912 11.0353 11.7463L11.0353 11.7465L10.9369 12.4615C10.9369 12.4616 10.9369 12.4616 10.9369 12.4617C10.9202 12.5802 10.8644 12.6915 10.7815 12.7744L10.6923 12.8636C10.6922 12.8637 10.6921 12.8638 10.692 12.8639C10.5283 13.0253 10.4394 13.2435 10.4394 13.473C10.4394 13.705 10.5285 13.9208 10.6918 14.084C10.8551 14.2473 11.0731 14.3364 11.3028 14.3364Z" fill="#4F4F4F" stroke="#4F4F4F" stroke-width="0.2"/>
<path d="M20.0508 9.8344H20.1667L20.1636 9.81331C20.206 9.79698 20.2445 9.77165 20.2768 9.73933L20.2769 9.73924L21.1124 8.90153C21.1125 8.9015 21.1125 8.90147 21.1125 8.90144C21.4927 8.52115 21.4927 7.9001 21.1125 7.51983C21.1125 7.51982 21.1124 7.5198 21.1124 7.51979L17.2581 3.66107L17.2581 3.66103C17.0732 3.47615 16.8269 3.37362 16.5661 3.37362C16.3031 3.37362 16.059 3.47624 15.8742 3.66103L15.0364 4.49883L15.0364 4.4988L15.0345 4.50077C14.9791 4.55925 14.9437 4.63801 14.9437 4.72485C14.9437 4.80944 14.9754 4.88987 15.0364 4.95088L19.8248 9.74165L19.8247 9.74168L19.8267 9.74356C19.8852 9.79896 19.964 9.8344 20.0508 9.8344ZM16.3261 4.11355L16.3262 4.11343C16.3908 4.04884 16.4748 4.01366 16.5661 4.01366C16.6555 4.01366 16.7416 4.04904 16.806 4.11343L20.6621 7.96954C20.6622 7.9696 20.6622 7.96966 20.6623 7.96972C20.7945 8.10383 20.7938 8.32074 20.6626 8.45201L20.0508 9.06378L15.7123 4.72531L16.3261 4.11355Z" fill="#4F4F4F" stroke="#4F4F4F" stroke-width="0.2"/>
<path d="M18.3171 6.15089L18.2464 6.08018L18.1757 6.15089L17.4316 6.89497L17.3609 6.96568L17.4316 7.03639L17.741 7.34577L17.8117 7.41648L17.8824 7.34577L18.6265 6.60169L18.6972 6.53098L18.6265 6.46027L18.3171 6.15089Z" fill="#4F4F4F" stroke="#4F4F4F" stroke-width="0.2"/>
<path d="M17.5187 5.35209L17.448 5.28138L17.3773 5.35209L16.6332 6.09617L16.5625 6.16688L16.6332 6.23759L16.9426 6.54697L17.0133 6.61768L17.084 6.54697L17.8281 5.80289L17.8988 5.73218L17.8281 5.66146L17.5187 5.35209Z" fill="#4F4F4F" stroke="#4F4F4F" stroke-width="0.2"/>
<path d="M16.7211 4.55369L16.6504 4.48298L16.5797 4.55369L15.8356 5.29777L15.7649 5.36848L15.8356 5.43919L16.145 5.74857L16.2157 5.81928L16.2864 5.74857L17.0305 5.00449L17.1012 4.93378L17.0305 4.86307L16.7211 4.55369Z" fill="#4F4F4F" stroke="#4F4F4F" stroke-width="0.2"/>
<path d="M19.1143 6.94769L19.0436 6.87698L18.9729 6.94769L18.2288 7.69177L18.1581 7.76248L18.2288 7.83319L18.5382 8.14257L18.6089 8.21328L18.6796 8.14257L19.4237 7.39849L19.4944 7.32778L19.4237 7.25706L19.1143 6.94769Z" fill="#4F4F4F" stroke="#4F4F4F" stroke-width="0.2"/>
<path d="M19.9123 7.74608L19.8416 7.67537L19.7709 7.74608L19.0268 8.49017L18.9561 8.56088L19.0268 8.63159L19.3362 8.94097L19.4069 9.01168L19.4776 8.94097L20.2217 8.19688L20.2924 8.12617L20.2217 8.05546L19.9123 7.74608Z" fill="#4F4F4F" stroke="#4F4F4F" stroke-width="0.2"/>
<path d="M8.1108 16.6184L8.11091 16.6184C8.82001 16.9676 9.58033 17.1542 10.3737 17.1701L10.3736 17.1713H10.4848C11.706 17.1713 12.8588 16.77 13.815 16.0078C14.3501 15.5864 14.7915 15.0713 15.1302 14.4831C15.5962 13.6737 15.8413 12.7508 15.8413 11.8126C15.8413 11.5898 15.828 11.3649 15.8012 11.1401L15.8013 11.1401L15.8011 11.1389C15.7852 11.0183 15.7029 10.9173 15.5893 10.8763L15.5894 10.8763L15.587 10.8755C15.4731 10.8375 15.3458 10.8657 15.2594 10.9521L13.2578 12.9537C13.1731 13.0384 13.062 13.0924 12.945 13.1091C12.9449 13.1091 12.9448 13.1092 12.9447 13.1092L12.2282 13.2075C12.2281 13.2075 12.228 13.2075 12.2279 13.2075C11.9741 13.2411 11.7331 13.3605 11.5515 13.5421L11.4618 13.6318L11.4618 13.6318L11.4606 13.6331C11.419 13.6762 11.3643 13.6988 11.3028 13.6988C11.2429 13.6988 11.1871 13.6751 11.1439 13.6318L11.1426 13.6306C11.0995 13.589 11.0769 13.5343 11.0769 13.4729C11.0769 13.4129 11.1006 13.3571 11.1439 13.3139L11.2336 13.2242L11.2336 13.2242C11.4156 13.0422 11.5324 12.8033 11.5681 12.5483L11.5682 12.548L11.6666 11.833C11.6666 11.8329 11.6666 11.8329 11.6666 11.8328C11.6833 11.7143 11.739 11.6031 11.822 11.5201L14.7161 8.62602C14.8173 8.5248 14.8405 8.36594 14.7668 8.24036C13.9855 6.89627 12.9147 5.76427 12.1544 5.0523L12.1543 5.05229C11.742 4.66631 11.3779 4.36109 11.1135 4.14974C10.9812 4.04405 10.8739 3.96182 10.7978 3.90468C10.7597 3.8761 10.7295 3.85382 10.708 3.83803L10.6823 3.81932L10.6747 3.81381L10.6725 3.81215L10.6722 3.81194C10.6718 3.81165 10.6716 3.81153 10.6716 3.81153L10.6716 3.81153L10.6705 3.81066C10.5645 3.73357 10.4179 3.73026 10.3084 3.80433L10.3644 3.88713L10.309 3.80396C10.2531 3.84122 9.00101 4.68205 7.73111 6.08176C6.98008 6.90766 6.38179 7.75712 5.95056 8.60854L5.95055 8.60856C5.40644 9.68351 5.12821 10.762 5.12821 11.8146C5.12821 13.2077 5.66105 14.5276 6.62615 15.5305L6.62625 15.5306C7.05626 15.9763 7.55557 16.3441 8.1108 16.6184ZM10.4788 4.46201C11.0575 4.90532 12.8875 6.39562 14.086 8.35153L11.3678 11.0698L11.3678 11.0698C11.1858 11.2518 11.0689 11.4906 11.0332 11.7457L11.0332 11.7459L10.9348 12.461C10.9348 12.461 10.9348 12.461 10.9348 12.461C10.9181 12.5796 10.8623 12.6909 10.7793 12.7739L10.6902 12.863C10.6901 12.8631 10.69 12.8632 10.6899 12.8633C10.5262 13.0247 10.4372 13.243 10.4372 13.4724C10.4372 13.7044 10.5264 13.9202 10.6896 14.0834L10.7604 14.0127L10.6896 14.0834C10.8529 14.2466 11.0686 14.3358 11.3007 14.3358C11.5327 14.3358 11.7485 14.2466 11.9117 14.0834L12.0014 13.9937C12.0861 13.909 12.1972 13.8551 12.3142 13.8383C12.3143 13.8383 12.3144 13.8383 12.3145 13.8383L13.031 13.74C13.0311 13.7399 13.0312 13.7399 13.0313 13.7399C13.2851 13.7063 13.5261 13.5869 13.7077 13.4053L15.2028 11.9102C15.1862 12.7032 14.9691 13.4811 14.5762 14.1641C14.2763 14.6847 13.8865 15.1366 13.4173 15.5094L13.4172 15.5095C12.5775 16.1778 11.5626 16.5312 10.4848 16.5312C9.74966 16.5312 9.04738 16.3684 8.39416 16.045L8.39404 16.0449C7.90352 15.8029 7.46449 15.4816 7.08533 15.0875C6.23474 14.2027 5.76572 13.0418 5.76572 11.8143C5.76572 9.65875 7.07871 7.74879 8.19418 6.51787C9.13693 5.47839 10.0898 4.74474 10.4788 4.46201Z" fill="#4F4F4F" stroke="#4F4F4F" stroke-width="0.2"/>
<path d="M10.4848 15.2856H10.5848V15.1856V14.7481V14.6481H10.4848C8.82287 14.6481 7.472 13.2973 7.472 11.6353V11.5353H7.372H6.93448H6.83448V11.6353C6.83448 13.6484 8.47177 15.2856 10.4848 15.2856Z" fill="#4F4F4F" stroke="#4F4F4F" stroke-width="0.2"/>
<path d="M14 19.0523L14 19.0524C12.1663 19.0524 10.4145 18.9055 8.92848 18.6285L8.92835 18.6285C7.4576 18.3523 6.34459 17.9662 5.72373 17.5012L5.72368 17.5011C5.34292 17.2155 5.12804 16.8875 5.12804 16.5242C5.12804 16.2182 5.27659 15.9389 5.54931 15.689C5.82075 15.4402 6.22061 15.2149 6.74035 15.0114C6.86291 14.9632 6.99632 14.9967 7.08595 15.0863L7.08732 15.0877L7.08731 15.0877C7.46648 15.4819 7.90555 15.8032 8.39397 16.0452C9.04719 16.3686 9.74946 16.5314 10.4846 16.5314C11.5624 16.5314 12.5773 16.1781 13.417 15.5097L13.4171 15.5097C13.8863 15.1369 14.2761 14.6849 14.5761 14.1643L14.6627 14.2142L14.5756 14.1652C14.6335 14.0623 14.7428 14.0017 14.8601 14.0049M14 19.0523L14.8574 14.1048M14 19.0523C14 19.0523 14 19.0523 14 19.0523C13.9999 19.0523 13.9999 19.0523 13.9998 19.0523V18.9529M14 19.0523L13.9998 18.9524M14.8601 14.0049C14.8601 14.0049 14.8601 14.0049 14.8601 14.0049L14.8574 14.1048M14.8601 14.0049C14.86 14.0049 14.86 14.0049 14.86 14.0049L14.8574 14.1048M14.8601 14.0049C16.9828 14.0597 18.9561 14.3163 20.4103 14.7283L20.4103 14.7283C21.1391 14.9353 21.7186 15.1749 22.1309 15.4452L22.0761 15.5289C21.6758 15.2664 21.1071 15.0301 20.383 14.8245C18.9394 14.4155 16.9749 14.1595 14.8574 14.1048M13.9998 18.9524C13.9998 18.9524 13.9998 18.9524 13.9998 18.9524C13.9936 18.9524 13.9874 18.9524 13.9812 18.9524L13.9639 19.0456L13.9641 19.0457L13.9998 18.9529M13.9998 18.9524V18.9529M13.9998 18.9524L14 18.9523V18.9524L13.9998 18.9529M19.0715 18.6262C20.5422 18.3522 21.6553 17.9662 22.274 17.501M22.274 17.501C22.2739 17.5011 22.2738 17.5012 22.2737 17.5013L22.2139 17.4211L22.274 17.501Z" fill="#4F4F4F" stroke="#4F4F4F" stroke-width="0.2"/>
<path d="M7.87179 19.8391L7.87177 19.8391C7.25968 19.6809 6.58248 19.459 6.05617 19.1605C5.53657 18.8658 5.12804 18.4753 5.12804 17.9682V16.5245C5.12804 16.3489 5.27125 16.2057 5.44679 16.2057C5.62234 16.2057 5.76555 16.3489 5.76555 16.5245C5.76555 16.6025 5.8026 16.6855 5.8687 16.7699C5.93414 16.8535 6.0211 16.9294 6.10383 16.9912C6.62677 17.3813 7.6659 17.7435 9.0439 18.0012C10.4892 18.2711 12.2023 18.4151 13.9975 18.4151C15.7951 18.4151 17.5082 18.2711 18.9512 18.0012L18.9512 18.0012C20.3315 17.7435 21.3705 17.3813 21.8912 16.9913L21.8913 16.9912C21.974 16.9295 22.061 16.8535 22.1264 16.7699C22.1925 16.6855 22.2295 16.6025 22.2295 16.5245C22.2295 16.3489 22.3727 16.2057 22.5483 16.2057C22.7238 16.2057 22.867 16.3489 22.867 16.5245V17.9682C22.867 18.4754 22.4579 18.8658 21.9381 19.1605C21.4115 19.459 20.7343 19.6809 20.1234 19.8391L20.1232 19.8392C18.4832 20.2618 16.309 20.4964 14 20.4964L7.87179 19.8391ZM7.87179 19.8391C9.5162 20.264 11.6906 20.4964 13.9995 20.4964L7.87179 19.8391ZM5.7656 17.9682V17.5302L19.0528 18.5283L19.0712 18.6266C19.0712 18.6266 19.0712 18.6266 19.0712 18.6266C20.5095 18.3586 21.6057 17.9835 22.2341 17.5321V17.9682C22.2341 18.0659 22.1777 18.1712 22.0752 18.2788C21.9744 18.3847 21.841 18.48 21.7154 18.5566L21.7153 18.5567C21.3205 18.7987 20.7188 19.0297 19.9685 19.2233L19.9684 19.2233C18.3802 19.634 16.2604 19.861 13.9998 19.861C11.7393 19.861 9.61978 19.634 8.03127 19.2233L8.03122 19.2233C7.28115 19.0298 6.67918 18.7966 6.28408 18.5565L6.23217 18.642L6.28425 18.5566C6.15887 18.4801 6.02545 18.3842 5.92458 18.2781C5.82189 18.17 5.7656 18.0647 5.7656 17.9682Z" fill="#4F4F4F" stroke="#4F4F4F" stroke-width="0.2"/>
<path d="M14 19.0524V19.0524C15.8337 19.0524 17.5855 18.9055 19.0714 18.6263C20.5423 18.3523 21.6552 17.9663 22.276 17.5035L22.2767 17.503C22.3559 17.4428 22.4037 17.3479 22.4037 17.2484C22.4037 17.1488 22.3559 17.0539 22.2767 16.9937L22.2762 16.9933C21.6553 16.5282 20.5423 16.1422 19.0716 15.866L19.0714 15.866C17.5855 15.589 15.8336 15.4421 13.9999 15.4421H13.9994C13.862 15.4421 13.7343 15.4421 13.6109 15.4443L13.6109 15.4442L13.6082 15.4444C13.5433 15.4473 13.4734 15.468 13.4164 15.5146C12.5769 16.1826 11.5622 16.5358 10.4846 16.5358C9.75001 16.5358 9.04803 16.3711 8.39489 16.0479C8.32563 16.012 8.25129 16.0067 8.1818 16.0218L8.1818 16.0218L8.18026 16.0222C7.08252 16.2791 6.23051 16.611 5.72368 16.9911L5.72368 16.9911L5.72317 16.9915C5.64398 17.0517 5.59618 17.1466 5.59618 17.2461C5.59618 17.3457 5.64398 17.4406 5.72317 17.5007L5.72317 17.5007L5.72373 17.5012C6.34459 17.9663 7.4576 18.3523 8.92835 18.6285L8.92848 18.6285C10.4145 18.9055 12.1663 19.0524 14 19.0524ZM21.472 17.2462C20.8918 17.538 20.0233 17.8005 18.9533 18.001C17.5103 18.2709 15.7949 18.4149 13.9997 18.4149C12.2045 18.4149 10.4914 18.2709 9.04604 18.001C7.97565 17.8004 7.10683 17.5378 6.5266 17.2458C6.94552 17.0338 7.51686 16.8382 8.2138 16.6691C8.92485 17.0024 9.68758 17.1712 10.4822 17.1712C11.6699 17.1712 12.7885 16.7948 13.7261 16.0789C13.8133 16.0774 13.9042 16.0774 13.9997 16.0774C15.7949 16.0774 17.508 16.2214 18.9533 16.4913C20.0252 16.6918 20.8921 16.9543 21.472 17.2462Z" fill="#4F4F4F" stroke="#4F4F4F" stroke-width="0.2"/>
</svg>
