<svg width="103" height="103" viewBox="0 0 103 103" fill="none" xmlns="http://www.w3.org/2000/svg">
<path d="M90.125 19.3125H12.875C11.1677 19.3125 9.53027 19.9907 8.323 21.198C7.11573 22.4053 6.4375 24.0427 6.4375 25.75V77.25C6.4375 78.9573 7.11573 80.5947 8.323 81.802C9.53027 83.0093 11.1677 83.6875 12.875 83.6875H90.125C91.8323 83.6875 93.4697 83.0093 94.677 81.802C95.8843 80.5947 96.5625 78.9573 96.5625 77.25V25.75C96.5625 24.0427 95.8843 22.4053 94.677 21.198C93.4697 19.9907 91.8323 19.3125 90.125 19.3125ZM83.0437 25.75L51.5 47.5731L19.9562 25.75H83.0437ZM12.875 77.25V28.6791L49.6653 54.1394C50.2041 54.5132 50.8442 54.7135 51.5 54.7135C52.1558 54.7135 52.7959 54.5132 53.3347 54.1394L90.125 28.6791V77.25H12.875Z" fill="black"/>
</svg>
