<svg width="134" height="134" viewBox="0 0 134 134" fill="none" xmlns="http://www.w3.org/2000/svg">
<path d="M70.5567 25.4735C69.9345 25.3509 69.3064 25.2612 68.6746 25.2051V20.0993C68.6746 19.1743 67.9245 18.4243 66.9996 18.4243C66.0746 18.4243 65.3246 19.1743 65.3246 20.0993V25.22C61.6686 25.573 57.9419 27.1104 55.7539 30.6847C54.7279 32.4435 54.1881 34.4431 54.1881 36.4793C54.1888 38.5155 54.7302 40.515 55.7569 42.2738C58.22 46.608 62.875 48.0205 66.9824 49.2669C71.4288 50.6159 75.2677 51.7802 76.533 55.9774C77.7003 59.8734 75.113 63.0678 72.2169 64.3854L72.2161 64.3846C69.163 65.6902 65.6986 65.6356 62.6881 64.2343C59.5483 62.8951 57.1277 60.283 56.0316 57.0513C55.8962 56.6266 55.5979 56.2737 55.2016 56.0703C54.8053 55.8661 54.3446 55.8287 53.9206 55.9656C53.4974 56.1024 53.1452 56.4023 52.9433 56.7986C52.7407 57.1957 52.7048 57.657 52.8431 58.0803C54.2332 62.2207 57.3208 65.573 61.3334 67.2979C62.6083 67.8565 63.9498 68.2476 65.325 68.4615V83.0564L63.1596 80.8909V80.8902C62.5053 80.2381 61.4464 80.2396 60.7929 80.8924C60.1401 81.546 60.1386 82.6048 60.7907 83.259L65.8149 88.2833V88.2825C66.4775 88.9174 67.5229 88.9174 68.1854 88.2825L73.2096 83.2583V83.259C73.8602 82.604 73.8594 81.5467 73.2067 80.8932C72.5531 80.2404 71.4958 80.2396 70.8408 80.8902L68.6753 83.0564V68.629C70.3765 68.5333 72.0462 68.1287 73.6023 67.4348C78.1966 65.3507 81.104 60.1785 79.7857 55.1872C78.3118 49.6074 72.9383 47.5728 67.956 46.0614C64.1073 44.8927 60.4722 43.7905 58.6678 40.6162C57.935 39.3809 57.5432 37.9728 57.5327 36.5365C57.5223 35.1001 57.8939 33.6859 58.6088 32.4403C60.9942 28.5423 66.1836 28.0225 69.8987 28.7584V28.7591C73.7422 29.6983 76.802 32.6003 77.9431 36.3893C78.1801 37.2836 79.0969 37.8168 79.9912 37.5805C80.8855 37.3434 81.4186 36.4267 81.1824 35.5324C80.4585 33.0662 79.0946 30.8357 77.2282 29.0686C75.3618 27.3016 73.0602 26.0611 70.5573 25.4742L70.5567 25.4735Z" fill="#790396"/>
<path d="M20.5899 72.9035C20.1719 71.9007 19.7815 70.8688 19.4286 69.8355C19.1295 68.9598 18.1776 68.4925 17.302 68.7916C16.4271 69.0907 15.9598 70.0426 16.2589 70.9182C16.635 72.0196 17.0515 73.1219 17.4979 74.192C17.6684 74.6025 17.9952 74.9285 18.4065 75.0983C18.817 75.268 19.2791 75.2673 19.6889 75.096C20.0994 74.9248 20.4254 74.5973 20.5944 74.186C20.7634 73.7747 20.7619 73.3133 20.59 72.9036L20.5899 72.9035Z" fill="#790396"/>
<path d="M23.5072 78.7862C23.0428 77.9861 22.0176 77.7139 21.2175 78.1782C20.4174 78.6426 20.1459 79.6678 20.6096 80.4679C21.1951 81.4767 21.8194 82.4756 22.4655 83.4381H22.4663C22.9897 84.1934 24.0194 84.396 24.7904 83.8958C25.1591 83.6482 25.4148 83.2639 25.5008 82.8287C25.586 82.3928 25.4955 81.9404 25.248 81.5717C24.6416 80.6692 24.0553 79.7314 23.5072 78.7862L23.5072 78.7862Z" fill="#790396"/>
<path d="M15.0749 55.3705C15.9999 55.3705 16.7499 54.6205 16.7499 53.6955V53.5998C16.7499 52.5379 16.7835 51.4642 16.8493 50.406C16.9077 49.4825 16.2063 48.6876 15.2828 48.6293C14.3593 48.5717 13.5644 49.2731 13.5061 50.1966C13.4358 51.3235 13.3999 52.4683 13.3999 53.5996V53.6953C13.3999 54.6203 14.1499 55.3703 15.0749 55.3703L15.0749 55.3705Z" fill="#790396"/>
<path d="M17.7237 63.4929C17.5106 62.4266 17.3296 61.3363 17.1868 60.2505C17.0649 59.3337 16.2237 58.6884 15.3062 58.8095C14.3886 58.9307 13.7441 59.7727 13.8652 60.6902C14.0185 61.8477 14.2114 63.0112 14.438 64.1485C14.6212 65.0541 15.5021 65.6403 16.4076 65.4594C17.3139 65.2784 17.9024 64.399 17.7237 63.4928V63.4929Z" fill="#790396"/>
<path d="M42.3805 7.8394C42.1569 7.45504 41.7898 7.17537 41.3606 7.06246C40.9313 6.9488 40.4737 7.01087 40.0901 7.23445C39.0821 7.82145 38.0832 8.44658 37.1214 9.09414V9.09339C36.355 9.61084 36.1523 10.6502 36.6683 11.4168C37.1842 12.184 38.2229 12.3881 38.9909 11.8736C39.8927 11.2665 40.8296 10.6802 41.7756 10.1298C42.575 9.66398 42.8456 8.63879 42.3805 7.8394L42.3805 7.8394Z" fill="#790396"/>
<path d="M29.256 86.7747C28.6443 86.08 27.5855 86.0134 26.8915 86.6244C26.1976 87.236 26.1302 88.2949 26.7419 88.9889C27.5144 89.8653 28.322 90.7252 29.1407 91.5433C29.8017 92.1827 30.8501 92.1812 31.5096 91.5411C31.8237 91.2263 31.9994 90.8 31.9987 90.3559C31.9987 89.9117 31.8215 89.4855 31.5074 89.1714C30.7387 88.4042 29.9812 87.5981 29.2558 86.7747L29.256 86.7747Z" fill="#790396"/>
<path d="M39.1258 95.4178C38.2195 94.8128 37.32 94.1683 36.4517 93.5035C36.0996 93.2328 35.6539 93.1139 35.2134 93.1722C34.773 93.2306 34.3737 93.4609 34.1037 93.8131C33.5407 94.5474 33.6798 95.5987 34.4133 96.1619C35.3391 96.8715 36.2985 97.5588 37.2646 98.2041H37.2654C38.0393 98.6939 39.0615 98.4905 39.588 97.7412C39.8348 97.3718 39.9252 96.9194 39.8385 96.4835C39.7518 96.0483 39.4953 95.6647 39.1259 95.4179L39.1258 95.4178Z" fill="#790396"/>
<path d="M56.7319 4.36561C56.8433 4.36561 56.9548 4.3544 57.0632 4.33271C58.1325 4.1181 59.2227 3.9364 60.3048 3.79283V3.79208C61.2216 3.67019 61.8662 2.8282 61.7443 1.91145C61.6224 0.993929 60.7804 0.349351 59.8629 0.471999C58.7091 0.625291 57.5449 0.818963 56.4045 1.04852V1.04778C55.5603 1.21752 54.9823 1.99895 55.0668 2.85513C55.152 3.71133 55.8714 4.36487 56.7321 4.36562L56.7319 4.36561Z" fill="#790396"/>
<path d="M66.8561 3.35075L66.9997 3.35001C68.0496 3.35001 69.1085 3.38291 70.147 3.44722C70.1821 3.44946 70.2173 3.45021 70.2524 3.45021H70.2517C71.1557 3.44871 71.896 2.73011 71.9229 1.82605C71.9506 0.922736 71.2559 0.160027 70.3534 0.103192C69.2512 0.0351444 68.1272 0.000746572 66.9833 0H66.9713L66.8562 0.000747759C65.9304 0.000747759 65.1812 0.750765 65.1812 1.67575C65.1812 2.60073 65.9304 3.35075 66.8562 3.35075L66.8561 3.35075Z" fill="#790396"/>
<path d="M47.8166 100.058C46.8109 99.6422 45.8022 99.186 44.8181 98.7022C44.4195 98.5048 43.9582 98.4742 43.5372 98.617C43.1162 98.7598 42.7685 99.0641 42.5718 99.4635C42.3759 99.862 42.346 100.323 42.4896 100.744C42.6339 101.165 42.939 101.512 43.3383 101.707C44.3874 102.223 45.4635 102.71 46.5365 103.154C47.3919 103.496 48.3625 103.092 48.7245 102.246C48.8942 101.835 48.8942 101.374 48.7237 100.964C48.5532 100.554 48.2272 100.228 47.8167 100.058H47.8166Z" fill="#790396"/>
<path d="M116.258 43.6172C116.473 44.6835 116.656 45.7738 116.801 46.858C116.938 47.7666 117.771 48.4029 118.683 48.296C119.6 48.1734 120.244 47.3299 120.121 46.4131C119.966 45.2563 119.771 44.0936 119.542 42.9555C119.455 42.5196 119.198 42.136 118.828 41.89C118.457 41.6432 118.004 41.5542 117.568 41.6417C117.132 41.7299 116.75 41.9872 116.504 42.3581C116.258 42.7282 116.169 43.1814 116.258 43.6173V43.6172Z" fill="#790396"/>
<path d="M18.3359 35.3702C19.1914 35.7045 20.1582 35.3029 20.524 34.4602C20.9412 33.4492 21.3966 32.4397 21.8782 31.4609H21.8774C22.0741 31.0616 22.104 30.6009 21.9612 30.1807C21.8176 29.7597 21.5133 29.4128 21.114 29.2168C20.7154 29.0209 20.2548 28.991 19.8338 29.1346C19.4128 29.2781 19.0666 29.5832 18.8714 29.9825C18.3577 31.0272 17.8716 32.104 17.4267 33.1823L17.426 33.183C17.0738 34.0377 17.4813 35.0173 18.336 35.3703L18.3359 35.3702Z" fill="#790396"/>
<path d="M15.7217 45.2118C16.628 45.3808 17.5021 44.7923 17.6869 43.889C17.8955 42.8197 18.1438 41.7421 18.4235 40.6869C18.6605 39.7926 18.1273 38.8758 17.233 38.6388C16.3394 38.4018 15.4227 38.9349 15.1857 39.8293C14.8873 40.9554 14.6226 42.1048 14.399 43.2467V43.2459C14.2218 44.1537 14.814 45.0338 15.7218 45.2119L15.7217 45.2118Z" fill="#790396"/>
<path d="M22.8354 26.2293C23.6056 26.7423 24.645 26.5337 25.158 25.7642C25.7644 24.8542 26.4075 23.9546 27.07 23.0894C27.6331 22.3551 27.4932 21.3037 26.7589 20.7413C26.0246 20.1783 24.9733 20.3174 24.4109 21.0524C23.7042 21.9751 23.0178 22.9353 22.3702 23.9066C21.8573 24.676 22.0651 25.7162 22.8354 26.2292V26.2293Z" fill="#790396"/>
<path d="M30.2072 18.6338C30.6529 18.6345 31.0799 18.4566 31.3939 18.1403C32.1626 17.3693 32.968 16.6111 33.7891 15.8879C34.483 15.2762 34.5496 14.2174 33.9379 13.5234C33.3262 12.8295 32.2674 12.7629 31.5734 13.3746C30.6985 14.1455 29.84 14.9539 29.0205 15.7764C28.5434 16.2565 28.4013 16.9759 28.6608 17.601C28.9203 18.2261 29.5305 18.6336 30.2072 18.6336L30.2072 18.6338Z" fill="#790396"/>
<path d="M113.374 34.2103C113.794 35.2161 114.186 36.2473 114.54 37.277C114.852 38.1422 115.795 38.6036 116.668 38.3172C117.089 38.1728 117.435 37.8677 117.629 37.4684C117.824 37.0699 117.853 36.6092 117.709 36.189C117.332 35.0905 116.913 33.9891 116.464 32.9167H116.463C116.107 32.0635 115.125 31.6612 114.272 32.0186C113.418 32.3761 113.016 33.3572 113.374 34.2103H113.374Z" fill="#790396"/>
<path d="M107.192 18.1373C106.42 17.2632 105.611 16.4047 104.788 15.5867C104.473 15.2726 104.046 15.0969 103.601 15.0977C103.156 15.0984 102.731 15.2764 102.416 15.5919C102.103 15.9075 101.928 16.3345 101.93 16.7794C101.932 17.2243 102.111 17.6498 102.426 17.9623C103.198 18.7296 103.957 19.5349 104.681 20.3552C105.301 21.0357 106.348 21.1007 107.046 20.5018C107.739 19.8893 107.805 18.8305 107.193 18.1372L107.192 18.1373Z" fill="#790396"/>
<path d="M113.341 26.6489C112.756 25.6447 112.13 24.6471 111.479 23.6818V23.681C110.962 22.9138 109.921 22.7112 109.154 23.2279C108.387 23.7446 108.184 24.7855 108.7 25.5528C109.31 26.4583 109.897 27.3945 110.447 28.336C110.921 29.1248 111.937 29.3925 112.738 28.9394C113.122 28.7158 113.401 28.3487 113.514 27.9187C113.627 27.4895 113.565 27.0326 113.341 26.649L113.341 26.6489Z" fill="#790396"/>
<path d="M111.114 81.0528C110.346 80.5383 109.306 80.744 108.79 81.5127C108.181 82.4227 107.536 83.3215 106.872 84.1844H106.873C106.309 84.918 106.447 85.9694 107.18 86.5333C107.917 87.0844 108.959 86.9483 109.529 86.2259C110.237 85.3062 110.924 84.3475 111.574 83.3769H111.574C112.089 82.6082 111.883 81.5673 111.114 81.0528V81.0528Z" fill="#790396"/>
<path d="M102.539 89.1252C101.768 89.8954 100.962 90.6521 100.141 91.3737H100.14C99.4451 91.9839 99.3763 93.042 99.9865 93.7375C100.603 94.4179 101.65 94.486 102.35 93.8908C103.226 93.1221 104.087 92.3152 104.908 91.4935L104.908 91.4943C105.222 91.1802 105.399 90.754 105.399 90.309C105.4 89.8649 105.222 89.4386 104.908 89.1238C104.594 88.8098 104.167 88.6333 103.723 88.6333C103.279 88.634 102.853 88.8105 102.539 89.1253L102.539 89.1252Z" fill="#790396"/>
<path d="M49.6374 2.87507C48.5397 3.25119 47.4383 3.66845 46.3636 4.11712H46.3644C45.9531 4.28761 45.6263 4.61514 45.4573 5.0264C45.2876 5.43767 45.2883 5.8998 45.4596 6.31031C45.6315 6.72083 45.9591 7.04613 46.3703 7.21512C46.7823 7.38337 47.2445 7.38112 47.6542 7.20914C48.6615 6.78815 49.6933 6.39706 50.7215 6.04562L50.7223 6.04487C51.5971 5.74576 52.0645 4.7931 51.7646 3.91829C51.4655 3.04265 50.5129 2.57605 49.6373 2.87515L49.6374 2.87507Z" fill="#790396"/>
<path d="M120.6 53.397C120.595 52.472 119.839 51.7265 118.914 51.7325C117.989 51.7384 117.245 52.493 117.25 53.4179L117.251 53.5996C117.251 54.6921 117.215 55.7988 117.144 56.8869C117.123 57.3467 117.288 57.7969 117.604 58.1327C117.919 58.4684 118.357 58.6628 118.818 58.6696C119.7 58.6688 120.431 57.9831 120.488 57.103C120.563 55.9432 120.601 54.7647 120.601 53.5996L120.6 53.397Z" fill="#790396"/>
<path d="M99.5083 10.9799C98.5826 10.2725 97.6217 9.58682 96.6526 8.94214C96.2825 8.69239 95.8286 8.60041 95.3911 8.68716C94.9529 8.7739 94.5678 9.03114 94.3211 9.40278C94.0736 9.77442 93.9853 10.2291 94.0743 10.6658C94.1641 11.1032 94.4235 11.4868 94.7967 11.7313C95.7052 12.3355 96.6063 12.9786 97.4736 13.6419H97.4743C98.2124 14.1907 99.254 14.0509 99.8224 13.3278C100.384 12.5928 100.243 11.5414 99.5083 10.9798V10.9799Z" fill="#790396"/>
<path d="M118.263 62.0821C117.827 61.9953 117.374 62.0851 117.005 62.3326C116.635 62.5801 116.38 62.9644 116.295 63.4011C116.084 64.4712 115.834 65.5472 115.553 66.6024V66.6016C115.438 67.0316 115.498 67.4885 115.72 67.8736C115.943 68.2587 116.309 68.5391 116.739 68.6535C117.168 68.7687 117.626 68.7073 118.01 68.4845C118.394 68.2617 118.675 67.8953 118.789 67.4653C119.09 66.3407 119.357 65.1906 119.582 64.0502C119.668 63.6143 119.577 63.1619 119.33 62.7932C119.082 62.4238 118.699 62.1681 118.263 62.0821V62.0821Z" fill="#790396"/>
<path d="M115.63 71.9214C114.776 71.5693 113.797 71.9745 113.442 72.8277C113.022 73.8387 112.566 74.8467 112.083 75.8226C111.672 76.6519 112.013 77.6569 112.842 78.0675C113.671 78.4773 114.675 78.1378 115.086 77.3086C115.601 76.2654 116.089 75.1902 116.537 74.1104C116.706 73.6998 116.706 73.2385 116.537 72.8287C116.367 72.4182 116.041 72.0921 115.63 71.9216L115.63 71.9214Z" fill="#790396"/>
<path d="M67.0476 103.85C67.0349 103.85 67.011 103.85 66.9878 103.851C65.9162 103.851 64.8304 103.816 63.7605 103.748H63.7598C63.3163 103.719 62.8789 103.868 62.5454 104.161C62.2111 104.455 62.0078 104.869 61.9793 105.313C61.9517 105.757 62.1005 106.194 62.3951 106.527C62.689 106.861 63.1032 107.064 63.5474 107.091C64.6803 107.163 65.8296 107.199 67.0036 107.199H67.0485L67.0478 107.2C67.9727 107.2 68.7227 106.45 68.7227 105.525C68.7227 104.6 67.9727 103.85 67.0478 103.85L67.0476 103.85Z" fill="#790396"/>
<path d="M76.847 102.885C75.7836 103.096 74.6918 103.276 73.6032 103.42V103.421C73.1628 103.478 72.7635 103.709 72.4928 104.062C72.2221 104.414 72.1032 104.859 72.1615 105.3C72.2968 106.208 73.1283 106.845 74.0406 106.741C75.2012 106.587 76.3648 106.397 77.4982 106.172H77.499C77.9349 106.086 78.3185 105.83 78.566 105.461C78.8135 105.091 78.904 104.639 78.8173 104.203C78.7313 103.766 78.4748 103.383 78.1046 103.136C77.7352 102.888 77.2828 102.799 76.8469 102.885L76.847 102.885Z" fill="#790396"/>
<path d="M94.9313 95.3772C94.022 95.9874 93.0844 96.5721 92.1443 97.1157C91.76 97.3386 91.4795 97.7042 91.3652 98.1335C91.2507 98.5627 91.3113 99.0196 91.5341 99.4039C92.0052 100.195 93.0207 100.466 93.8231 100.014C94.8258 99.4346 95.8264 98.8102 96.7961 98.1611C97.5648 97.6459 97.7705 96.6058 97.256 95.8362C96.7408 95.0675 95.6999 94.8619 94.9311 95.3771L94.9313 95.3772Z" fill="#790396"/>
<path d="M57.2448 102.904C56.1762 102.695 55.0994 102.447 54.0435 102.166C53.6135 102.051 53.1559 102.11 52.7708 102.333C52.3857 102.556 52.1053 102.923 51.9909 103.353C51.8765 103.783 51.9378 104.241 52.1614 104.625C52.385 105.009 52.7529 105.289 53.1828 105.403C54.3097 105.702 55.4591 105.968 56.5994 106.192C57.5072 106.369 58.3866 105.777 58.5646 104.87C58.7426 103.963 58.1519 103.083 57.2448 102.904L57.2448 102.904Z" fill="#790396"/>
<path d="M80.7235 1.77378C79.6018 1.47766 78.4518 1.2137 77.3048 0.99011C76.3977 0.815133 75.5198 1.40737 75.3434 2.31441C75.1662 3.22146 75.7577 4.10008 76.6639 4.27809C77.7385 4.48747 78.816 4.73422 79.8659 5.01239C80.7603 5.24794 81.6763 4.71477 81.9125 3.82119C82.1488 2.9276 81.6171 2.01085 80.7236 1.77386L80.7235 1.77378Z" fill="#790396"/>
<path d="M90.5745 5.44963C89.5299 4.93666 88.4531 4.45211 87.3719 4.00794H87.3727C86.5172 3.6565 85.5384 4.06477 85.187 4.92021C84.8348 5.77567 85.2438 6.75448 86.0992 7.10595C87.1117 7.52246 88.1205 7.97635 89.0985 8.45716C89.93 8.849 90.9223 8.51026 91.3403 7.69145C91.5362 7.2929 91.5654 6.83226 91.4218 6.41202C91.2783 5.99177 90.9739 5.64556 90.5746 5.44965L90.5745 5.44963Z" fill="#790396"/>
<path d="M86.2595 100.027C85.2559 100.445 84.2232 100.833 83.1914 101.185V101.184C82.7712 101.328 82.4242 101.631 82.2275 102.03C82.0316 102.428 82.001 102.888 82.1445 103.309C82.4526 104.175 83.3941 104.639 84.269 104.356C85.3712 103.982 86.4743 103.566 87.5457 103.12C88.3996 102.766 88.8042 101.785 88.449 100.931C88.0938 100.077 87.1142 99.6721 86.2595 100.027L86.2595 100.027Z" fill="#790396"/>
</svg>
