<svg width="28" height="28" viewBox="0 0 28 28" fill="none" xmlns="http://www.w3.org/2000/svg">
<path d="M22.1292 17.9216H22.129L21.8358 13.0875L21.8357 13.0874C21.7289 11.3461 20.3231 9.96976 18.6211 9.96976H16.6092C17.8217 9.1428 18.6218 7.75187 18.6218 6.17368C18.6218 3.63718 16.5587 1.57648 14.0226 1.57648C11.4862 1.57648 9.42335 3.63941 9.42335 6.17368C9.42335 7.75191 10.2234 9.14281 11.4359 9.96976H9.37695C7.67512 9.96976 6.26693 11.3436 6.16231 13.0876C6.16231 13.0876 6.16231 13.0876 6.16231 13.0876L5.85999 18.1093C5.85999 18.1093 5.85998 18.1094 5.85998 18.1094C5.80509 18.9971 6.1199 19.8733 6.72028 20.512L6.72042 20.5122C7.30182 21.1295 8.08216 21.471 8.92009 21.471H19.0829C19.9186 21.471 20.7011 21.1293 21.2825 20.5122L21.2827 20.5121C21.8835 19.8732 22.1957 18.999 22.1408 18.1093L22.1292 17.9216ZM9.38073 10.8204H11.6042L13.8629 14.0349L14.0265 14.2678L14.1902 14.0349L16.4489 10.8204H18.6231C19.8656 10.8204 20.9114 11.833 20.9927 13.1414C20.9927 13.1414 20.9927 13.1415 20.9927 13.1415L21.2973 18.1625C21.2973 18.1626 21.2973 18.1627 21.2973 18.1628C21.3345 18.819 21.1022 19.4642 20.663 19.9343L20.6604 19.9371C20.2387 20.3838 19.6786 20.6256 19.0822 20.6256H8.91936C8.31948 20.6256 7.75794 20.3806 7.33805 19.9338L7.33784 19.9336C6.89712 19.4662 6.66503 18.8196 6.70644 18.1637L6.70647 18.1632L7.01116 13.1412L7.01116 13.1412C7.09034 11.8333 8.138 10.8204 9.38073 10.8204ZM10.2732 6.1736C10.2732 4.10678 11.9555 2.42452 14.0246 2.42452C16.0937 2.42452 17.776 4.10694 17.776 6.1736C17.776 8.24058 16.0936 9.925 14.0246 9.925C11.9555 9.925 10.2732 8.24267 10.2732 6.1736ZM12.6398 10.82H15.4092L14.0245 12.792L12.6398 10.82Z" fill="#4F4F4F" stroke="#4F4F4F" stroke-width="0.4"/>
<path d="M19.6252 14.6408V14.4408H19.4252H18.6396V13.6552V13.4552H18.4396H17.5302H17.3302V13.6552V14.4408H16.5446H16.3446V14.6408V15.5503V15.7503H16.5446H17.3302V16.5358V16.7358H17.5302H18.4396H18.6396V16.5358V15.7503H19.4252H19.6252V15.5503V14.6408Z" fill="#4F4F4F" stroke="#4F4F4F" stroke-width="0.4"/>
</svg>
