<svg width="28" height="28" viewBox="0 0 28 28" fill="none" xmlns="http://www.w3.org/2000/svg">
<g clip-path="url(#clip0_546_794)">
<path d="M14.5479 14.0341H14.7479V13.8341V11.3207C16.2732 10.9853 17.4147 9.62615 17.4147 8C17.4147 6.12203 15.8925 4.59984 14.0147 4.59984C12.1369 4.59984 10.6147 6.12202 10.6147 7.99984V8.53328V8.73328H10.8147H11.8812H12.0812V8.53328V7.99984C12.0812 6.93219 12.9468 6.06656 14.0147 6.06656C15.0823 6.06656 15.948 6.93217 15.948 8C15.948 9.06766 15.0823 9.93328 14.0147 9.93328H13.4812H13.2812V10.1333V13.8341V14.0341H13.4812H14.5479ZM14 22.6C20.296 22.6 25.4 17.4961 25.4 11.2C25.4 4.90394 20.296 -0.2 14 -0.2C7.70434 -0.2 2.59999 4.90394 2.59999 11.2C2.59999 17.4961 7.70434 22.6 14 22.6ZM13.9999 1.1644C19.5426 1.1644 24.0355 5.65726 24.0355 11.2C24.0355 16.7427 19.5422 21.2356 13.9999 21.2356C8.45752 21.2356 3.96427 16.7427 3.96427 11.2C3.96427 5.65726 8.45752 1.1644 13.9999 1.1644ZM12.7479 16.5333C12.7479 17.2329 13.315 17.8 14.0147 17.8C14.7142 17.8 15.2812 17.2329 15.2812 16.5333C15.2812 15.8338 14.7142 15.2667 14.0147 15.2667C13.315 15.2667 12.7479 15.8337 12.7479 16.5333Z" fill="#4F4F4F" stroke="#4F4F4F" stroke-width="0.4"/>
</g>
<defs>
<clipPath id="clip0_546_794">
<rect width="28" height="28" fill="white"/>
</clipPath>
</defs>
</svg>
