<svg width="210" height="210" viewBox="0 0 210 210" fill="none" xmlns="http://www.w3.org/2000/svg">
<path d="M48.384 60.8164C35.6154 60.8164 25.1997 71.2333 25.1997 84.0007C25.1997 96.7681 35.6154 107.185 48.384 107.185C61.1517 107.185 71.736 96.7681 71.736 84.0007C71.736 71.2333 61.3191 60.8164 48.384 60.8164ZM48.384 102.144C38.4723 102.144 30.24 94.0807 30.24 84.0004C30.24 74.0887 38.3037 65.8564 48.384 65.8564C58.2957 65.8564 66.528 73.9201 66.528 84.0004C66.528 93.9121 58.4631 102.144 48.384 102.144Z" fill="black"/>
<path d="M53.2559 88.8722C53.2559 88.8722 51.5754 90.8878 48.3845 90.8878C45.3611 90.8878 43.6805 88.8722 43.5131 88.8722C42.6729 87.6956 40.9936 87.5281 39.9845 88.5359C38.8079 89.3761 38.6404 91.0554 39.6482 92.0645C39.8158 92.232 42.8405 95.9282 48.3845 95.9282C53.9285 95.9282 57.1208 92.2322 57.1208 92.0645C57.961 91.0566 57.7923 89.3762 56.7844 88.5359C55.7766 87.6968 54.0962 87.8644 53.2558 88.8722H53.2559Z" fill="black"/>
<path d="M44.3522 78.7923C44.3522 80.6474 42.8475 82.152 40.9925 82.152C39.1363 82.152 37.6328 80.6473 37.6328 78.7923C37.6328 76.9361 39.1363 75.4326 40.9925 75.4326C42.8476 75.4326 44.3522 76.9361 44.3522 78.7923Z" fill="black"/>
<path d="M59.3039 78.7923C59.3039 80.6474 57.7992 82.152 55.9442 82.152C54.0879 82.152 52.5845 80.6473 52.5845 78.7923C52.5845 76.9361 54.088 75.4326 55.9442 75.4326C57.7993 75.4326 59.3039 76.9361 59.3039 78.7923Z" fill="black"/>
<path d="M157.416 78.7923C157.416 80.6474 155.913 82.152 154.056 82.152C152.201 82.152 150.697 80.6473 150.697 78.7923C150.697 76.9361 152.201 75.4326 154.056 75.4326C155.913 75.4326 157.416 76.9361 157.416 78.7923Z" fill="black"/>
<path d="M172.368 78.7923C172.368 80.6474 170.864 82.152 169.008 82.152C167.153 82.152 165.648 80.6473 165.648 78.7923C165.648 76.9361 167.153 75.4326 169.008 75.4326C170.864 75.4326 172.368 76.9361 172.368 78.7923Z" fill="black"/>
<path d="M161.616 60.8164C148.848 60.8164 138.432 71.2321 138.432 84.0007C138.433 96.7684 148.681 107.185 161.616 107.185C174.384 107.185 184.8 96.7693 184.8 84.0007C184.8 71.233 174.385 60.8164 161.616 60.8164ZM161.616 102.144C151.704 102.144 143.472 94.0807 143.472 84.0004C143.472 74.0887 151.536 65.8564 161.616 65.8564C171.528 65.8564 179.76 73.9201 179.76 84.0004C179.76 93.9121 171.529 102.144 161.616 102.144Z" fill="black"/>
<path d="M161.616 86.5206C156.072 86.5206 152.88 90.2166 152.88 90.3843C152.039 91.3921 152.208 93.0726 153.216 93.9129C154.224 94.7532 155.904 94.5844 156.744 93.5766C156.744 93.5766 158.425 91.561 161.616 91.561C164.639 91.561 166.32 93.5766 166.487 93.5766C166.991 94.2481 167.664 94.5844 168.503 94.5844C169.007 94.5844 169.679 94.4168 170.183 94.0805C171.36 93.2403 171.528 91.561 170.52 90.5519C170.185 90.3855 167.16 86.5205 161.616 86.5205L161.616 86.5206Z" fill="black"/>
<path d="M100.968 78.7923C100.968 80.6474 99.4644 82.152 97.6082 82.152C95.7532 82.152 94.2485 80.6473 94.2485 78.7923C94.2485 76.9361 95.7532 75.4326 97.6082 75.4326C99.4645 75.4326 100.968 76.9361 100.968 78.7923Z" fill="black"/>
<path d="M115.752 78.7923C115.752 80.6474 114.247 82.152 112.392 82.152C110.536 82.152 109.033 80.6473 109.033 78.7923C109.033 76.9361 110.536 75.4326 112.392 75.4326C114.247 75.4326 115.752 76.9361 115.752 78.7923Z" fill="black"/>
<path d="M105 60.8164C92.2325 60.8164 81.8159 71.2321 81.8159 84.0007C81.8159 96.7684 92.2328 107.185 105 107.185C117.768 107.185 128.185 96.7681 128.185 84.0007C128.185 71.2333 117.768 60.8164 105 60.8164ZM105 102.144C95.0885 102.144 86.8562 94.0807 86.8562 84.0004C86.8562 74.0887 94.9199 65.8564 105 65.8564C114.912 65.8564 123.144 73.9201 123.144 84.0004C123.144 93.9121 114.912 102.144 105 102.144Z" fill="black"/>
<path d="M111.216 88.0322H98.7837C97.4395 88.0322 96.2642 89.2088 96.2642 90.5518C96.2642 91.8959 97.4407 93.0713 98.7837 93.0713H111.216C112.56 93.0713 113.736 91.8947 113.736 90.5518C113.737 89.2076 112.56 88.0322 111.216 88.0322Z" fill="black"/>
</svg>
