<svg width="28" height="28" viewBox="0 0 28 28" fill="none" xmlns="http://www.w3.org/2000/svg">
<path d="M23.2094 7.41563L18.8344 3.04063C18.7759 2.97736 18.7048 2.92713 18.6257 2.89321C18.5465 2.85928 18.4611 2.84243 18.375 2.84375H9.625C9.21889 2.84375 8.82941 3.00508 8.54224 3.29225C8.25508 3.57941 8.09375 3.96889 8.09375 4.375V6.34375H6.125C5.71889 6.34375 5.32941 6.50508 5.04224 6.79225C4.75508 7.07941 4.59375 7.46889 4.59375 7.875V23.625C4.59375 24.0311 4.75508 24.4206 5.04224 24.7078C5.32941 24.9949 5.71889 25.1563 6.125 25.1563H18.375C18.7811 25.1563 19.1706 24.9949 19.4578 24.7078C19.7449 24.4206 19.9063 24.0311 19.9063 23.625V21.6563H21.875C22.2811 21.6563 22.6706 21.4949 22.9578 21.2078C23.2449 20.9206 23.4063 20.5311 23.4063 20.125V7.875C23.4076 7.7889 23.3907 7.70348 23.3568 7.62432C23.3229 7.54517 23.2726 7.47406 23.2094 7.41563V7.41563ZM18.5938 23.625C18.5938 23.683 18.5707 23.7387 18.5297 23.7797C18.4887 23.8207 18.433 23.8438 18.375 23.8438H6.125C6.06698 23.8438 6.01134 23.8207 5.97032 23.7797C5.9293 23.7387 5.90625 23.683 5.90625 23.625V7.875C5.90625 7.81699 5.9293 7.76135 5.97032 7.72032C6.01134 7.6793 6.06698 7.65625 6.125 7.65625H14.6016L18.5938 11.6484V23.625ZM22.0938 20.125C22.0938 20.183 22.0707 20.2387 22.0297 20.2797C21.9887 20.3207 21.933 20.3438 21.875 20.3438H19.9063V11.375C19.9076 11.2889 19.8907 11.2035 19.8568 11.1243C19.8229 11.0452 19.7726 10.9741 19.7094 10.9156L15.3344 6.54063C15.2759 6.47736 15.2048 6.42713 15.1257 6.39321C15.0465 6.35928 14.9611 6.34243 14.875 6.34375H9.40625V4.375C9.40625 4.31699 9.4293 4.26135 9.47032 4.22032C9.51134 4.1793 9.56698 4.15625 9.625 4.15625H18.1016L22.0938 8.14844V20.125ZM15.5313 16.625C15.5313 16.7991 15.4621 16.966 15.339 17.089C15.216 17.2121 15.049 17.2813 14.875 17.2813H9.625C9.45095 17.2813 9.28403 17.2121 9.16096 17.089C9.03789 16.966 8.96875 16.7991 8.96875 16.625C8.96875 16.451 9.03789 16.284 9.16096 16.161C9.28403 16.0379 9.45095 15.9688 9.625 15.9688H14.875C15.049 15.9688 15.216 16.0379 15.339 16.161C15.4621 16.284 15.5313 16.451 15.5313 16.625ZM15.5313 20.125C15.5313 20.2991 15.4621 20.466 15.339 20.589C15.216 20.7121 15.049 20.7813 14.875 20.7813H9.625C9.45095 20.7813 9.28403 20.7121 9.16096 20.589C9.03789 20.466 8.96875 20.2991 8.96875 20.125C8.96875 19.951 9.03789 19.784 9.16096 19.661C9.28403 19.5379 9.45095 19.4688 9.625 19.4688H14.875C15.049 19.4688 15.216 19.5379 15.339 19.661C15.4621 19.784 15.5313 19.951 15.5313 20.125Z" fill="#4F4F4F"/>
</svg>
