<svg width="28" height="28" viewBox="0 0 28 28" fill="none" xmlns="http://www.w3.org/2000/svg">
<path d="M19.5734 20.1916H17.4632C16.5135 20.1916 15.7429 19.421 15.7429 18.4713V16.2224C15.7429 15.7475 15.3576 15.3622 14.8827 15.3622H13.1221C12.6473 15.3622 12.2619 15.7475 12.2619 16.2224V18.4713C12.2619 19.421 11.4913 20.1916 10.5416 20.1916H8.43146C6.54538 20.1916 5.01318 18.6594 5.01318 16.7733L5.01334 9.30534C5.01334 8.15394 5.5913 7.0833 6.5499 6.45158L12.1231 2.77798C13.2655 2.02534 14.7439 2.02534 15.8862 2.77798L21.4546 6.43814C22.4177 7.06986 23.0003 8.14502 22.9957 9.29642V16.778C22.9915 18.6596 21.4593 20.1918 19.5732 20.1918L19.5734 20.1916ZM13.1222 13.9284H14.8828C16.1506 13.9284 17.1766 14.9543 17.1766 16.2222V18.4711C17.1766 18.628 17.3064 18.7578 17.4633 18.7578H19.5735C20.6711 18.7578 21.5581 17.8663 21.5581 16.7731V9.29154C21.5581 8.62402 21.2222 7.99686 20.6622 7.6295L15.0934 3.96934C14.4305 3.53482 13.5703 3.53482 12.9117 3.96934L7.3385 7.64294C6.7785 8.01028 6.44258 8.6331 6.44694 9.30058V16.7734C6.44694 17.871 7.3385 18.7581 8.43162 18.7581H10.5418C10.6987 18.7581 10.8285 18.6282 10.8285 18.4713V16.2224C10.8283 14.9545 11.8543 13.9285 13.1221 13.9285L13.1222 13.9284Z" fill="#4F4F4F"/>
</svg>
