<svg width="121" height="121" viewBox="0 0 121 121" fill="none" xmlns="http://www.w3.org/2000/svg">
<path d="M53.8242 46.73H57.1619V50.0677H53.8242V46.73Z" fill="#790396"/>
<path d="M60.5 46.73H63.8377V50.0677H60.5V46.73Z" fill="#790396"/>
<path d="M67.1758 46.73H70.5135V50.0677H67.1758V46.73Z" fill="#790396"/>
<path d="M112.238 63.4213H87.2049V61.7522C87.2049 60.8291 86.4588 60.083 85.5357 60.083H65.5085C64.5855 60.083 63.8394 60.8291 63.8394 61.7522V95.1309C63.8394 96.0539 64.5855 96.8 65.5085 96.8H112.239C113.162 96.8 113.908 96.0539 113.908 95.1309V65.09C113.908 64.167 113.162 63.4216 112.239 63.4216L112.238 63.4213ZM83.8653 63.4213V64.399L78.1677 70.0966H67.1757V63.4206L83.8653 63.4213ZM110.568 93.4621H67.1742V73.4349H78.8569C79.3005 73.4349 79.7246 73.2594 80.0372 72.9461L86.2236 66.759H110.567L110.568 93.4621Z" fill="#790396"/>
<path d="M55.4942 3.33761H30.4593V1.66914C30.4593 0.746121 29.7118 0 28.7901 0H8.76289C7.84122 0 7.09375 0.746121 7.09375 1.66914V35.0479C7.09375 35.9709 7.84122 36.717 8.76289 36.717H55.4931C56.4141 36.717 57.1622 35.9709 57.1622 35.0479V5.00701C57.1622 4.08399 56.4141 3.33787 55.4931 3.33787L55.4942 3.33761ZM27.1214 3.33761V4.31533L21.4232 10.0136H10.4312V3.33765L27.1214 3.33761ZM53.8244 33.3785H10.4303V13.3512H22.113C22.5553 13.3512 22.9807 13.1757 23.2933 12.8624L29.4804 6.67529H53.8239L53.8244 33.3785Z" fill="#790396"/>
<path d="M93.8786 21.6971V44.3725L90.0513 40.5453L87.6915 42.9051L94.3674 49.581C94.6935 49.9065 95.1203 50.0706 95.5477 50.0706C95.9751 50.0706 96.4025 49.9072 96.728 49.5817L103.404 42.9058L101.044 40.5459L97.2168 44.3725V21.6971C97.2168 17.0954 93.4734 13.3521 88.8718 13.3521L63.8369 13.3527V16.6904H88.8718C91.6329 16.6904 93.8786 18.9369 93.8786 21.6972L93.8786 21.6971Z" fill="#790396"/>
<path d="M30.4592 75.1031V52.4277L34.2864 56.2549L36.6462 53.8951L29.9703 47.2192C29.3181 46.5669 28.2627 46.5669 27.6105 47.2192L20.9346 53.8951L23.2944 56.2549L27.1216 52.4277V75.1031C27.1216 79.7047 30.865 83.4481 35.4667 83.4481H57.1637V80.1104L35.4667 80.1098C32.7063 80.1098 30.4599 77.8633 30.4599 75.1029L30.4592 75.1031Z" fill="#790396"/>
</svg>
