<svg width="50" height="50" viewBox="0 0 50 50" fill="none" xmlns="http://www.w3.org/2000/svg">
<path d="M22.0888 2.48892H16.2512C15.7648 1.71456 14.9145 1.2444 14 1.2444C13.0854 1.2444 12.2351 1.71456 11.7487 2.48892H5.91112C5.41628 2.48939 4.94176 2.68626 4.59176 3.03628C4.24192 3.38612 4.04504 3.86064 4.0444 4.35564V19.2888C4.04503 19.7837 4.2419 20.2582 4.59176 20.6082C4.94176 20.9581 5.41628 21.1549 5.91112 21.1556H22.0891C22.584 21.1549 23.0585 20.9581 23.4085 20.6082C23.7583 20.2582 23.9552 19.7837 23.9558 19.2888V4.35564C23.9552 3.86064 23.7583 3.38612 23.4085 3.03628C23.0585 2.68628 22.584 2.4894 22.0891 2.48892H22.0888ZM12.1332 3.73328C12.1384 3.73328 12.1426 3.73047 12.1477 3.73031V3.73047C12.197 3.72656 12.2454 3.71687 12.2921 3.70125C12.3235 3.69594 12.3546 3.68828 12.3849 3.67812C12.4205 3.65891 12.4541 3.63625 12.4854 3.61047C12.5188 3.59062 12.5504 3.56766 12.5796 3.54188C12.6002 3.5161 12.6187 3.48875 12.6348 3.46C12.6648 3.42203 12.6899 3.38047 12.7101 3.33656C12.712 3.33172 12.716 3.32875 12.7179 3.32391L12.7177 3.32375C12.8651 2.99078 13.1362 2.72811 13.4737 2.59139C13.8112 2.45467 14.1887 2.45467 14.5261 2.59139C14.8636 2.72811 15.1347 2.99077 15.2821 3.32375C15.2841 3.32922 15.2881 3.33313 15.2903 3.3386H15.2902C15.2997 3.35844 15.3103 3.37766 15.3221 3.39625C15.3453 3.44266 15.3746 3.48594 15.4088 3.52484C15.4257 3.54281 15.4436 3.55984 15.4625 3.57547C15.5002 3.60812 15.5416 3.63609 15.586 3.65859C15.6064 3.67015 15.6277 3.68047 15.6494 3.68953C15.7185 3.71719 15.7921 3.73203 15.8666 3.73328H17.7333L17.7332 4.9778H10.2668V3.73328L12.1332 3.73328ZM22.7112 19.2889C22.711 19.4539 22.6456 19.612 22.5289 19.7287C22.4121 19.8454 22.254 19.9109 22.089 19.9111H5.91102C5.74602 19.9109 5.5879 19.8454 5.47118 19.7287C5.35446 19.612 5.28899 19.4539 5.28883 19.2889V4.35568C5.28899 4.19068 5.35446 4.0324 5.47118 3.91568C5.5879 3.79912 5.74602 3.73349 5.91102 3.73334H9.0221V5.60006C9.0221 5.76506 9.08757 5.92349 9.20429 6.04022C9.32101 6.15678 9.47929 6.22241 9.64429 6.22225H18.3555C18.5205 6.22241 18.6788 6.15678 18.7955 6.04022C18.9122 5.9235 18.9777 5.76506 18.9777 5.60006V3.73334H22.0888C22.2538 3.73349 22.4119 3.79912 22.5286 3.91568C22.6453 4.0324 22.7108 4.19068 22.7109 4.35568L22.7112 19.2889Z" fill="#4F4F4F"/>
<path d="M13.378 12.4448H12.5546L11.4669 9.72512C11.418 9.59997 11.3294 9.49419 11.2149 9.42387C11.1002 9.35372 10.9658 9.32294 10.8321 9.33622C10.6986 9.34872 10.5727 9.40372 10.473 9.4934C10.3735 9.58309 10.3054 9.70247 10.2791 9.83387L9.42287 14.1139L8.85771 12.8178C8.80928 12.7069 8.72943 12.6126 8.62803 12.5462C8.52678 12.48 8.40834 12.4448 8.28725 12.4448H7.15585C6.98975 12.4431 6.82975 12.5079 6.71177 12.6248C6.5938 12.7417 6.52739 12.9009 6.52739 13.067C6.52739 13.2331 6.5938 13.3923 6.71177 13.5092C6.82973 13.6261 6.98973 13.6908 7.15585 13.6892H7.88005L9.07413 16.427C9.12272 16.538 9.20256 16.6323 9.30381 16.6986C9.40522 16.7648 9.52366 16.8001 9.64459 16.8001C9.66678 16.8001 9.68897 16.7989 9.71084 16.7966C9.84256 16.7823 9.96631 16.7266 10.064 16.6373C10.1618 16.548 10.2287 16.4298 10.2547 16.3001L11.0889 12.1309L11.5557 13.2981C11.6019 13.4136 11.6816 13.5125 11.7846 13.5824C11.8875 13.6521 12.0091 13.6894 12.1335 13.6894H13.378C13.5441 13.691 13.7039 13.6263 13.8219 13.5094C13.94 13.3925 14.0065 13.2333 14.0065 13.0672C14.0065 12.9011 13.94 12.7419 13.8219 12.625C13.704 12.5081 13.5441 12.4433 13.378 12.445L13.378 12.4448Z" fill="#4F4F4F"/>
<path d="M15.8668 7.4668C15.7016 7.46664 15.5434 7.53211 15.4266 7.64883C15.3099 7.76555 15.2444 7.92399 15.2444 8.08899V18.0446C15.2444 18.2669 15.363 18.4724 15.5557 18.5835C15.7482 18.6948 15.9854 18.6948 16.1779 18.5835C16.3704 18.4724 16.489 18.2669 16.489 18.0446V8.08899C16.489 7.92399 16.4235 7.76556 16.3068 7.64883C16.1901 7.53211 16.0318 7.46664 15.8668 7.4668H15.8668Z" fill="#4F4F4F"/>
<path d="M20.8444 9.9556H18.3556C18.1333 9.9556 17.9278 10.0742 17.8167 10.2667C17.7055 10.4592 17.7055 10.6964 17.8167 10.8889C17.9278 11.0814 18.1333 11.2 18.3556 11.2H20.8445H20.8444C21.0667 11.2 21.2722 11.0814 21.3833 10.8889C21.4946 10.6964 21.4946 10.4592 21.3833 10.2667C21.2722 10.0742 21.0667 9.9556 20.8444 9.9556H20.8444Z" fill="#4F4F4F"/>
<path d="M20.8444 12.4444H18.3556C18.1333 12.4444 17.9278 12.563 17.8167 12.7556C17.7055 12.9481 17.7055 13.1853 17.8167 13.3779C17.9278 13.5704 18.1333 13.6889 18.3556 13.6889H20.8445H20.8444C21.0667 13.6889 21.2722 13.5704 21.3833 13.3779C21.4946 13.1853 21.4946 12.9482 21.3833 12.7556C21.2722 12.563 21.0667 12.4444 20.8444 12.4444H20.8444Z" fill="#4F4F4F"/>
<path d="M20.8444 14.9332H18.3556C18.1333 14.9332 17.9278 15.0518 17.8167 15.2443C17.7055 15.4369 17.7055 15.6741 17.8167 15.8667C17.9278 16.0592 18.1333 16.1777 18.3556 16.1777H20.8445H20.8444C21.0667 16.1777 21.2722 16.0592 21.3833 15.8667C21.4946 15.6741 21.4946 15.437 21.3833 15.2443C21.2722 15.0518 21.0667 14.9332 20.8444 14.9332H20.8444Z" fill="#4F4F4F"/>
</svg>
