<svg width="26" height="26" viewBox="0 0 28 28" fill="none" xmlns="http://www.w3.org/2000/svg">
<path d="M14 12.25C14.9283 12.25 15.8185 11.8813 16.4749 11.2249C17.1313 10.5685 17.5 9.67826 17.5 8.75C17.5 7.82174 17.1313 6.9315 16.4749 6.27513C15.8185 5.61875 14.9283 5.25 14 5.25C13.0717 5.25 12.1815 5.61875 11.5251 6.27513C10.8687 6.9315 10.5 7.82174 10.5 8.75C10.5 9.67826 10.8687 10.5685 11.5251 11.2249C12.1815 11.8813 13.0717 12.25 14 12.25V12.25ZM14 10.5C13.5359 10.5 13.0908 10.3156 12.7626 9.98744C12.4344 9.65925 12.25 9.21413 12.25 8.75C12.25 8.28587 12.4344 7.84075 12.7626 7.51256C13.0908 7.18437 13.5359 7 14 7C14.4641 7 14.9092 7.18437 15.2374 7.51256C15.5656 7.84075 15.75 8.28587 15.75 8.75C15.75 9.21413 15.5656 9.65925 15.2374 9.98744C14.9092 10.3156 14.4641 10.5 14 10.5V10.5ZM8.75 21C8.51794 21 8.29538 21.0922 8.13128 21.2563C7.96719 21.4204 7.875 21.6429 7.875 21.875C7.875 22.1071 7.96719 22.3296 8.13128 22.4937C8.29538 22.6578 8.51794 22.75 8.75 22.75H19.25C19.4821 22.75 19.7046 22.6578 19.8687 22.4937C20.0328 22.3296 20.125 22.1071 20.125 21.875C20.125 21.6429 20.0328 21.4204 19.8687 21.2563C19.7046 21.0922 19.4821 21 19.25 21H8.75ZM4.375 4.8125C4.375 4.00027 4.69766 3.22132 5.27199 2.64699C5.84632 2.07266 6.62527 1.75 7.4375 1.75H20.5625C21.3747 1.75 22.1537 2.07266 22.728 2.64699C23.3023 3.22132 23.625 4.00027 23.625 4.8125V23.1875C23.625 23.9997 23.3023 24.7787 22.728 25.353C22.1537 25.9273 21.3747 26.25 20.5625 26.25H7.4375C6.62527 26.25 5.84632 25.9273 5.27199 25.353C4.69766 24.7787 4.375 23.9997 4.375 23.1875V4.8125ZM7.4375 3.5C7.0894 3.5 6.75556 3.63828 6.50942 3.88442C6.26328 4.13056 6.125 4.4644 6.125 4.8125V17.5H8.75V14.875C8.75 14.4109 8.93437 13.9658 9.26256 13.6376C9.59075 13.3094 10.0359 13.125 10.5 13.125H17.5C17.9641 13.125 18.4092 13.3094 18.7374 13.6376C19.0656 13.9658 19.25 14.4109 19.25 14.875V17.5H21.875V4.8125C21.875 4.4644 21.7367 4.13056 21.4906 3.88442C21.2444 3.63828 20.9106 3.5 20.5625 3.5H7.4375ZM6.125 23.1875C6.125 23.5356 6.26328 23.8694 6.50942 24.1156C6.75556 24.3617 7.0894 24.5 7.4375 24.5H20.5625C20.9106 24.5 21.2444 24.3617 21.4906 24.1156C21.7367 23.8694 21.875 23.5356 21.875 23.1875V19.25H6.125V23.1875ZM17.5 14.875H10.5V17.5H17.5V14.875Z" fill="#4F4F4F"/>
</svg>
