<svg width="28" height="28" viewBox="0 0 28 28" fill="none" xmlns="http://www.w3.org/2000/svg">
<path d="M18.9 10.5H11.83V15.19H5.6V8.4C5.6 7.98 5.32 7.7 4.9 7.7C4.48 7.7 4.2 7.98 4.2 8.4V17.5C4.2 17.92 4.48 18.2 4.9 18.2C5.32 18.2 5.6 17.92 5.6 17.5V16.59H22.4V17.5C22.4 17.92 22.68 18.2 23.1 18.2C23.52 18.2 23.8 17.92 23.8 17.5V15.4C23.8 12.67 21.63 10.5 18.9 10.5ZM13.23 15.19V11.9H18.9C20.79 11.9 22.26 13.37 22.4 15.19H13.23Z" fill="#4F4F4F"/>
<path d="M8.75 14C9.73 14 10.5 13.23 10.5 12.25C10.5 11.27 9.73 10.5 8.75 10.5C7.77 10.5 7 11.27 7 12.25C7 13.23 7.77 14 8.75 14ZM8.75 11.9C8.96 11.9 9.1 12.04 9.1 12.25C9.1 12.46 8.96 12.6 8.75 12.6C8.54 12.6 8.4 12.46 8.4 12.25C8.4 12.04 8.54 11.9 8.75 11.9Z" fill="#4F4F4F"/>
<path d="M7.7 6.93H9.73L11.9 8.68L14.84 5.25L16.45 6.93H19.67C20.09 6.93 20.37 6.65 20.37 6.23C20.37 5.81 20.09 5.53 19.67 5.53H17.08L14.77 3.15L11.69 6.72L10.15 5.53H7.7C7.28 5.53 7 5.81 7 6.23C7 6.65 7.28 6.93 7.7 6.93Z" fill="#4F4F4F"/>
</svg>
