<svg width="143" height="142" viewBox="0 0 143 142" fill="none" xmlns="http://www.w3.org/2000/svg">
<path d="M112.684 27.0452C112.623 26.4129 112.297 25.8344 111.786 25.4509C111.276 25.0682 110.628 24.9144 109.998 25.0278C91.6936 28.34 74.5259 13.3405 74.3563 13.186H74.3555C73.4873 12.4165 72.1762 12.4165 71.308 13.186C71.134 13.3405 53.9651 28.3495 35.6601 25.0278C35.0297 24.9184 34.3825 25.0729 33.871 25.4549C33.3547 25.8344 33.0228 26.4113 32.9557 27.0452C31.5034 41.559 34.2541 56.1816 40.8845 69.1969C47.5158 82.2106 57.7515 93.0732 70.3874 100.508L71.7057 101.231H71.7049C72.3943 101.609 73.2306 101.609 73.9193 101.231L75.2512 100.499C87.885 93.0641 98.1189 82.2017 104.748 69.1902C111.379 56.178 114.132 41.557 112.682 27.0446L112.684 27.0452ZM73.0281 96.5319L72.8222 96.65L72.6299 96.5406C61.1963 89.6626 51.8663 79.8183 45.6458 68.0676C39.4247 56.3169 36.5488 43.104 37.3259 29.8513C53.6712 31.6232 68.1771 21.4859 72.8226 17.8367C77.4629 21.4723 91.9274 31.6097 108.309 29.8513C109.086 43.1003 106.213 56.31 99.9965 68.0575C93.78 79.8057 84.4564 89.6496 73.0266 96.5305L73.0281 96.5319Z" fill="#790396"/>
<path d="M28.0688 22.2211C28.0895 21.8598 28.2539 21.5214 28.526 21.2805C28.8093 21.0412 29.1756 20.9224 29.5466 20.9493C41.3977 21.8653 53.2499 19.1941 63.5418 13.2874C64.6135 12.6202 64.9367 11.216 64.2648 10.1527C63.5921 9.08845 62.1789 8.76673 61.1072 9.43472C51.6653 14.7835 40.8318 17.2161 29.9904 16.4229C28.3872 16.2827 26.7951 16.7906 25.5735 17.8311C24.3526 18.8723 23.6057 20.3581 23.5019 21.9531C21.5204 55.9885 35.9163 87.478 61.0802 104.133C62.1312 104.827 63.5508 104.544 64.2513 103.5C64.9504 102.457 64.6655 101.047 63.6153 100.351C39.8018 84.5887 26.1963 54.6476 28.0696 22.2229L28.0688 22.2211Z" fill="#790396"/>
<path d="M90.4721 40.9917L65.2632 66.0304L57.53 50.6719V50.6711C57.2611 50.1275 56.7847 49.713 56.2061 49.5205C55.6284 49.3271 54.9964 49.3707 54.4513 49.6425C53.9063 49.9135 53.493 50.3898 53.3022 50.965C53.1123 51.5403 53.1618 52.1679 53.4387 52.7067L62.5909 70.8832C62.9205 71.5345 63.5453 71.9894 64.2707 72.105C64.3912 72.1272 64.5141 72.1375 64.6362 72.1375C65.2434 72.1383 65.8268 71.8998 66.2561 71.4735L93.7121 44.2095H93.7129C94.6074 43.3212 94.6074 41.8807 93.7129 40.9924C92.8183 40.1041 91.3677 40.1041 90.4731 40.9924L90.4721 40.9917Z" fill="#790396"/>
</svg>
